<?xml version="1.0" standalone="no"?>
<!DOCTYPE svg PUBLIC "-//W3C//DTD SVG 1.1//EN" "http://www.w3.org/Graphics/SVG/1.1/DTD/svg11.dtd" >
<svg>
<metadata>
Created by FontForge 20110222 at Wed Jun  4 16:29:33 2014
 By deploy user
Copyright (c) 1988, 1990, 1993, 2003 Linotype Library GmbH, www.linotype.com. All rights reserved. Copyright (c) 1988, 1990, 1993 Adobe Systems Incorporated. All Rights Reserved.
</metadata>
<defs>
<font id="HelveticaNeueLTPro-UltLtEx" horiz-adv-x="130" >
  <font-face 
    font-family="HelveticaNeueLT Pro 23 UltLtEx"
    font-weight="275"
    font-stretch="normal"
    units-per-em="1000"
    panose-1="2 11 2 4 2 2 2 2 2 4"
    ascent="714"
    descent="-286"
    x-height="512"
    cap-height="714"
    bbox="-165 -220 1162 946"
    underline-thickness="50"
    underline-position="-50"
    unicode-range="U+000D-FB02"
  />
<missing-glyph horiz-adv-x="512" 
d="M222 117h56v67h-56v-67zM225 234h46q0 52 6 72q6 19 43 52q37 34 50 60t13 60q0 59 -35 95t-89 36q-56 0 -92 -34t-43 -103l50 -8q11 95 82 95q31 0 53.5 -24.5t22.5 -60.5q0 -20 -9.5 -37t-40.5 -46q-31 -31 -46 -59q-13 -25 -13 -81zM462 50h-412v617h412v-617z
M512 718h-512v-718h512v718z" />
    <glyph glyph-name="IJ" unicode="IJ" horiz-adv-x="671" 
d="M55 0v714h20v-714h-20zM596 714h20v-536q0 -35 -11 -67t-35 -61.5t-69.5 -47.5t-106.5 -18q-220 0 -220 238h20q0 -218 198 -218q59 0 101.5 17t63.5 45t30 55.5t9 56.5v536z" />
    <glyph glyph-name="ij" unicode="ij" horiz-adv-x="317" 
d="M55 605v109h20v-109h-20zM55 0v512h20v-512h-20zM242 605v109h20v-109h-20zM242 -74v586h20v-603q0 -58 -28.5 -84.5t-93.5 -26.5q-11 0 -31.5 1.5t-29.5 1.5v20q20 -3 67 -3q56 0 76 24.5t20 83.5z" />
    <glyph glyph-name="napostrophe" unicode="&#x22;n" horiz-adv-x="628" 
d="M90 0v512h20v-115h2q57 131 231 131q70 0 118 -17.5t71 -49.5t32 -65t9 -74v-322h-20v322q0 37 -7.5 66t-28 58t-64.5 45.5t-110 16.5q-61 0 -106 -17t-68.5 -41t-37.5 -57t-17.5 -57t-3.5 -49v-287h-20zM80 702v102h20v-95q0 -47 -9.5 -75.5t-38.5 -45.5v26q28 18 28 88
z" />
    <glyph glyph-name="fi" unicode="fi" horiz-adv-x="426" 
d="M123 0v492h-122v20h122v101q0 62 34.5 84.5t98.5 22.5q14 0 60 -2v-20q-18 2 -29 2h-28q-68 0 -92 -22.5t-24 -75.5v-90h149v-20h-149v-492h-20zM351 605v109h20v-109h-20zM351 0v512h20v-512h-20z" />
    <glyph glyph-name="fl" unicode="fl" horiz-adv-x="426" 
d="M123 0v492h-122v20h122v101q0 62 34.5 84.5t98.5 22.5q14 0 60 -2v-20q-18 2 -29 2h-28q-68 0 -92 -22.5t-24 -75.5v-90h149v-20h-149v-492h-20zM351 0v714h20v-714h-20z" />
    <glyph glyph-name=".notdef" horiz-adv-x="512" 
d="M222 117h56v67h-56v-67zM225 234h46q0 52 6 72q6 19 43 52q37 34 50 60t13 60q0 59 -35 95t-89 36q-56 0 -92 -34t-43 -103l50 -8q11 95 82 95q31 0 53.5 -24.5t22.5 -60.5q0 -20 -9.5 -37t-40.5 -46q-31 -31 -46 -59q-13 -25 -13 -81zM462 50h-412v617h412v-617z
M512 718h-512v-718h512v718z" />
    <glyph glyph-name=".null" horiz-adv-x="500" 
 />
    <glyph glyph-name=".null" horiz-adv-x="500" 
 />
    <glyph glyph-name="nonmarkingreturn" horiz-adv-x="333" 
 />
    <glyph glyph-name="CR" unicode="&#xd;" horiz-adv-x="0" 
 />
    <glyph glyph-name="space" unicode=" " horiz-adv-x="324" 
 />
    <glyph glyph-name="exclam" unicode="!" horiz-adv-x="222" 
d="M101 0v96h20v-96h-20zM101 182v532h20v-532h-20z" />
    <glyph glyph-name="quotedbl" unicode="&#x22;" horiz-adv-x="296" 
d="M199 498v216h20v-216h-20zM77 498v216h20v-216h-20z" />
    <glyph glyph-name="numbersign" unicode="#" horiz-adv-x="648" 
d="M249 447l-26 -190h176l26 190h-176zM167 0l33 237h-124v20h127l26 190h-124v20h127l33 237h20l-33 -237h176l33 237h20l-33 -237h124v-20h-127l-26 -190h124v-20h-127l-33 -237h-20l33 237h-176l-33 -237h-20z" />
    <glyph glyph-name="dollar" unicode="$" horiz-adv-x="648" 
d="M326 -110v95q-302 4 -302 247h20q2 -122 75 -173.5t207 -53.5v348l-92 19q-40 8 -70.5 19t-58.5 29.5t-42.5 49t-14.5 70.5q0 180 266 180h12v80h20v-81q67 -3 115.5 -19t74.5 -35.5t42 -51t20.5 -53t7.5 -53.5h-20q-3 40 -13.5 69.5t-35 58t-72.5 45t-119 19.5v-330
l115 -25q163 -35 163 -162q0 -35 -11 -65.5t-39 -62.5t-86.5 -51t-141.5 -19v-94h-20zM326 373v327h-9q-249 0 -249 -162q0 -54 35 -89t123 -54zM346 349v-345q62 0 109 11t75 28.5t45 42t23 47t6 48.5q0 61 -39.5 95.5t-123.5 52.5z" />
    <glyph glyph-name="percent" unicode="%" horiz-adv-x="889" 
d="M197 -22l476 748h20l-476 -748h-20zM76 531q0 -82 40 -125.5t110 -43.5t110 43.5t40 125.5t-40 125.5t-110 43.5t-110 -43.5t-40 -125.5zM56 531q0 98 50 143.5t120 45.5t120 -45.5t50 -143.5t-50 -143.5t-120 -45.5t-120 45.5t-50 143.5zM513 173q0 -82 40 -125.5
t110 -43.5t110 43.5t40 125.5t-40 125.5t-110 43.5t-110 -43.5t-40 -125.5zM493 173q0 98 50 143.5t120 45.5t120 -45.5t50 -143.5t-50 -143.5t-120 -45.5t-120 45.5t-50 143.5z" />
    <glyph glyph-name="ampersand" unicode="&#x26;" horiz-adv-x="704" 
d="M574 118l-283 272l-83 -35q-70 -30 -101.5 -69t-31.5 -100q0 -78 64 -130t179 -52q154 0 256 114zM465 584q0 51 -37 80.5t-105 29.5q-70 0 -103.5 -31.5t-33.5 -80.5q0 -34 20.5 -66.5t89.5 -103.5q92 41 130.5 79.5t38.5 92.5zM312 397l274 -263q42 57 49 140h20
q-6 -87 -55 -154l125 -120h-29l-108 104q-104 -120 -272 -120q-112 0 -186.5 54.5t-74.5 147.5q0 65 31.5 108t104.5 75l85 36q-59 57 -84.5 96.5t-25.5 79.5q0 60 38 96.5t120 36.5q80 0 120.5 -37t40.5 -94q0 -58 -37 -98.5t-136 -87.5z" />
    <glyph glyph-name="quotesingle" unicode="'" horiz-adv-x="168" 
d="M74 498v216h20v-216h-20z" />
    <glyph glyph-name="parenleft" unicode="(" horiz-adv-x="260" 
d="M233 -190h-26q-65 93 -102.5 212t-37.5 240t37.5 240t102.5 212h26q-146 -209 -146 -452t146 -452z" />
    <glyph glyph-name="parenright" unicode=")" horiz-adv-x="260" 
d="M53 -190h-26q146 209 146 452t-146 452h26q65 -96 102.5 -213.5t37.5 -238.5t-37.5 -238.5t-102.5 -213.5z" />
    <glyph glyph-name="asterisk" unicode="*" horiz-adv-x="370" 
d="M175 566v148h20v-148l141 46l6 -19l-141 -46l87 -120l-16 -12l-87 120l-87 -120l-16 12l87 120l-141 46l6 19z" />
    <glyph glyph-name="plus" unicode="+" horiz-adv-x="600" 
d="M290 0v243h-243v20h243v243h20v-243h243v-20h-243v-243h-20z" />
    <glyph glyph-name="comma" unicode="," horiz-adv-x="168" 
d="M74 -6v102h20v-95q0 -47 -9.5 -75.5t-38.5 -45.5v26q28 18 28 88z" />
    <glyph glyph-name="hyphen" unicode="-" horiz-adv-x="370" 
d="M292 256h-214v20h214v-20z" />
    <glyph glyph-name="period" unicode="." horiz-adv-x="168" 
d="M74 0v96h20v-96h-20z" />
    <glyph glyph-name="slash" unicode="/" horiz-adv-x="407" 
d="M-15 -16l417 746h20l-417 -746h-20z" />
    <glyph glyph-name="zero" unicode="0" horiz-adv-x="648" 
d="M45 352q0 -157 68 -252.5t211 -95.5t211 95.5t68 252.5t-68 252.5t-211 95.5t-211 -95.5t-68 -252.5zM25 352q0 77 16 141.5t50.5 116.5t93.5 81t139 29t139 -29t93.5 -81t50.5 -116.5t16 -141.5t-16 -141.5t-50.5 -116.5t-93.5 -81t-139 -29t-139 29t-93.5 81
t-50.5 116.5t-16 141.5z" />
    <glyph glyph-name="one" unicode="1" horiz-adv-x="426" 
d="M262 0v678q-45 -48 -106 -81t-122 -46v20q135 34 222 133h26v-704h-20z" />
    <glyph glyph-name="two" unicode="2" horiz-adv-x="648" 
d="M586 0h-524q1 52 21.5 89.5t56 67t105.5 69.5l159 92q141 81 141 198q0 92 -59.5 138t-166.5 46q-115 0 -168.5 -57t-53.5 -173h-20q0 23 0.5 38.5t5.5 44t14 48.5t27.5 44t44.5 39t66.5 25.5t91.5 10.5q56 0 100 -14.5t69 -35.5t41.5 -49t22 -52t5.5 -47
q0 -73 -38.5 -125.5t-109.5 -94.5l-175 -101q-84 -48 -118 -86.5t-42 -94.5h504v-20z" />
    <glyph glyph-name="three" unicode="3" horiz-adv-x="648" 
d="M294 386h42q113 0 168.5 40.5t55.5 108.5q0 83 -59 124t-162 41q-129 0 -185 -52t-62 -165h-20q6 117 66 177t201 60q121 0 181 -49.5t60 -135.5q0 -59 -39.5 -104t-126.5 -54v-2q182 -21 182 -188q0 -26 -7 -51.5t-26 -53.5t-48 -49t-79 -35t-113 -14q-134 0 -202.5 62
t-68.5 170q0 3 0.5 10.5t0.5 11.5h20q-1 -3 -1 -11v-11q0 -109 67.5 -160.5t185.5 -51.5q70 0 121.5 17.5t78 46t39 58.5t12.5 61q0 179 -238 179h-44v20z" />
    <glyph glyph-name="four" unicode="4" horiz-adv-x="648" 
d="M438 678l-374 -472h376v472h-2zM440 0v186h-396v27l390 491h26v-498h144v-20h-144v-186h-20z" />
    <glyph glyph-name="five" unicode="5" horiz-adv-x="648" 
d="M159 704h401v-20h-383l-72 -299l2 -2q31 41 90.5 67t126.5 26q49 0 92.5 -11.5t85 -38t66.5 -78.5t25 -125q0 -104 -70 -171.5t-199 -67.5q-39 0 -75 7t-72 24t-62.5 43.5t-43 69.5t-16.5 97h20q0 -56 19 -98t45.5 -64.5t63 -36.5t64.5 -18t57 -4q119 0 184 60.5
t65 158.5q0 107 -62.5 170t-186.5 63q-75 0 -136 -33t-86 -78h-26z" />
    <glyph glyph-name="six" unicode="6" horiz-adv-x="648" 
d="M577 227q0 102 -68 162.5t-177 60.5q-114 0 -179.5 -62.5t-65.5 -160.5q0 -107 64 -165t181 -58q109 0 177 60.5t68 162.5zM581 532h-20q-11 85 -74 126.5t-149 41.5q-143 0 -205 -87t-62 -267q0 -14 0.5 -32t0.5 -27h2q21 91 92.5 137t165.5 46q121 0 193 -68t72 -175
q0 -108 -72 -175.5t-193 -67.5q-69 0 -120 19t-81.5 50.5t-48.5 79.5t-24.5 98t-6.5 115q0 192 68.5 283t219.5 91q94 0 162.5 -47.5t79.5 -140.5z" />
    <glyph glyph-name="seven" unicode="7" horiz-adv-x="593" 
d="M45 684v20h498v-26q-330 -290 -348 -678h-20q19 393 348 684h-478z" />
    <glyph glyph-name="eight" unicode="8" horiz-adv-x="648" 
d="M62 186q0 -182 262 -182t262 182q0 193 -262 193t-262 -193zM99 547q0 -148 225 -148t225 148q0 73 -56.5 113t-168.5 40t-168.5 -40t-56.5 -113zM42 186q0 181 201 202v2q-45 3 -78.5 19t-51.5 39.5t-26 47.5t-8 48q0 87 62.5 131.5t182.5 44.5t182.5 -44.5t62.5 -131.5
q0 -24 -8 -48t-26 -47.5t-51.5 -39.5t-78.5 -19v-2q201 -21 201 -202q0 -90 -67 -146t-215 -56q-149 0 -215.5 55.5t-66.5 146.5z" />
    <glyph glyph-name="nine" unicode="9" horiz-adv-x="648" 
d="M71 477q0 -102 68 -162.5t177 -60.5q114 0 179.5 62.5t65.5 160.5q0 107 -64 165t-181 58q-109 0 -177 -60.5t-68 -162.5zM67 172h20q11 -85 74 -126.5t149 -41.5q143 0 205 87t62 267q0 14 -0.5 32t-0.5 27h-2q-21 -91 -92.5 -137t-165.5 -46q-121 0 -193 67.5
t-72 175.5q0 107 72 175t193 68q69 0 120 -19t81.5 -50.5t48.5 -79.5t24.5 -98t6.5 -115q0 -193 -68.5 -283.5t-219.5 -90.5q-95 0 -163 47t-79 141z" />
    <glyph glyph-name="colon" unicode=":" horiz-adv-x="168" 
d="M74 0v96h20v-96h-20zM74 394v96h20v-96h-20z" />
    <glyph glyph-name="semicolon" unicode=";" horiz-adv-x="168" 
d="M74 394v96h20v-96h-20zM74 -6v102h20v-95q0 -47 -9.5 -75.5t-38.5 -45.5v26q28 18 28 88z" />
    <glyph glyph-name="semicolon" unicode="&#x37e;" horiz-adv-x="168" 
d="M74 394v96h20v-96h-20zM74 -6v102h20v-95q0 -47 -9.5 -75.5t-38.5 -45.5v26q28 18 28 88z" />
    <glyph glyph-name="less" unicode="&#x3c;" horiz-adv-x="600" 
d="M47 238v30l506 248v-26l-486 -237l486 -237v-26z" />
    <glyph glyph-name="equal" unicode="=" horiz-adv-x="600" 
d="M553 146h-506v20h506v-20zM553 340h-506v20h506v-20z" />
    <glyph glyph-name="greater" unicode="&#x3e;" horiz-adv-x="600" 
d="M47 -10v26l486 237l-486 237v26l506 -248v-30z" />
    <glyph glyph-name="question" unicode="?" horiz-adv-x="611" 
d="M290 0v96h20v-96h-20zM290 183v28q0 65 12 89.5t68 59.5l70 45q52 35 71 67t19 80q0 158 -229 158q-60 0 -103.5 -12.5t-68 -31t-39.5 -49t-19.5 -58t-5.5 -66.5h-20q1 39 5 67.5t19.5 63t41.5 55.5t74.5 36t115.5 15q249 0 249 -177q0 -58 -21 -93t-72 -67l-86 -57
q-40 -28 -50.5 -47t-10.5 -64v-42h-20z" />
    <glyph glyph-name="at" unicode="@" horiz-adv-x="800" 
d="M547 493l20 67h20l-92 -323q-8 -30 -8 -50q0 -15 11 -25t29 -10q78 0 142.5 85t64.5 180q0 92 -48 160.5t-118 100.5t-149 32q-147 0 -250 -103t-103 -250t103 -250t250 -103q95 0 171 45t125 119h23q-45 -84 -133 -134t-186 -50q-154 0 -263.5 109.5t-109.5 263.5
t109.5 263.5t263.5 109.5q139 0 237 -88t98 -222q0 -111 -70.5 -199.5t-157.5 -88.5q-25 0 -42 15.5t-17 40.5t10 48h-2q-57 -104 -148 -104q-58 0 -95 41.5t-37 100.5q0 74 27 143t82 116t125 47q43 0 75.5 -23t40.5 -64h2zM215 274q0 -54 33.5 -88t87.5 -34q42 0 81 37.5
t62.5 89.5t37.5 100t14 74q0 54 -30 80.5t-72 26.5q-92 0 -153 -87.5t-61 -198.5z" />
    <glyph glyph-name="A" unicode="A" horiz-adv-x="648" 
d="M324 694l-199 -438h398zM-17 0l328 714h26l328 -714h-26l-107 236h-416l-107 -236h-26z" />
    <glyph glyph-name="B" unicode="B" horiz-adv-x="685" 
d="M75 362v-342h342q63 0 108.5 17t68.5 44.5t33 55.5t10 57q0 168 -220 168h-342zM75 694v-312h350q86 0 138 46.5t52 108.5q0 77 -46.5 117t-129.5 40h-364zM55 0v714h388q87 0 139.5 -46t52.5 -131q0 -64 -48 -114t-110 -48v-2q78 -4 129 -48t51 -131q0 -34 -11.5 -66
t-37.5 -62t-75 -48t-116 -18h-362z" />
    <glyph glyph-name="C" unicode="C" horiz-adv-x="796" 
d="M736 271h20q-10 -91 -65.5 -158t-131.5 -98t-161 -31q-159 0 -264.5 100.5t-105.5 272.5t105.5 272.5t264.5 100.5q132 0 223 -55.5t118 -168.5h-20q-22 89 -102.5 146.5t-218.5 57.5q-148 0 -249 -94t-101 -259t101 -259t249 -94q139 0 234 79t104 188z" />
    <glyph glyph-name="D" unicode="D" horiz-adv-x="741" 
d="M55 0v714h348q144 0 221 -97t77 -260t-77 -260t-221 -97h-348zM75 694v-674h328q74 0 129.5 28t87 76.5t46.5 106.5t15 126t-15 126t-46.5 106.5t-87 76.5t-129.5 28h-328z" />
    <glyph glyph-name="E" unicode="E" horiz-adv-x="630" 
d="M55 0v714h556v-20h-536v-312h513v-20h-513v-342h542v-20h-562z" />
    <glyph glyph-name="F" unicode="F" horiz-adv-x="556" 
d="M55 0v714h501v-20h-481v-312h452v-20h-452v-362h-20z" />
    <glyph glyph-name="G" unicode="G" horiz-adv-x="815" 
d="M424 315v20h336v-335h-20v191h-2q-36 -105 -127.5 -156t-212.5 -51q-159 0 -264.5 100.5t-105.5 272.5t105.5 272.5t264.5 100.5q297 0 344 -240h-20q-27 105 -100 162.5t-224 57.5q-148 0 -249 -94t-101 -259t102 -259t253 -94q68 0 127.5 18.5t107 55.5t75 98t27.5 139
h-316z" />
    <glyph glyph-name="H" unicode="H" horiz-adv-x="722" 
d="M55 0v714h20v-332h572v332h20v-714h-20v362h-572v-362h-20z" />
    <glyph glyph-name="I" unicode="I" 
d="M55 0v714h20v-714h-20z" />
    <glyph glyph-name="J" unicode="J" horiz-adv-x="519" 
d="M444 714h20v-536q0 -35 -11 -67t-35 -61.5t-69.5 -47.5t-106.5 -18q-220 0 -220 238h20q0 -218 198 -218q59 0 101.5 17t63.5 45t30 55.5t9 56.5v536z" />
    <glyph glyph-name="K" unicode="K" horiz-adv-x="685" 
d="M55 0v714h20v-435l567 435h35l-390 -298l421 -416h-31l-407 402l-195 -149v-253h-20z" />
    <glyph glyph-name="L" unicode="L" horiz-adv-x="537" 
d="M55 0v714h20v-694h481v-20h-501z" />
    <glyph glyph-name="M" unicode="M" horiz-adv-x="926" 
d="M55 0v714h33l375 -694h2l373 694h33v-714h-20v688h-2l-373 -688h-26l-373 688h-2v-688h-20z" />
    <glyph glyph-name="N" unicode="N" horiz-adv-x="722" 
d="M55 0v714h26l564 -688h2v688h20v-714h-26l-564 688h-2v-688h-20z" />
    <glyph glyph-name="O" unicode="O" horiz-adv-x="796" 
d="M48 357q0 -165 101 -259t249 -94t249 94t101 259t-101 259t-249 94t-249 -94t-101 -259zM28 357q0 172 105.5 272.5t264.5 100.5t264.5 -100.5t105.5 -272.5t-105.5 -272.5t-264.5 -100.5t-264.5 100.5t-105.5 272.5z" />
    <glyph glyph-name="P" unicode="P" horiz-adv-x="648" 
d="M75 694v-349h339q99 0 150 45.5t51 128.5q0 175 -172 175h-368zM55 0v714h382q198 0 198 -195q0 -83 -52 -138.5t-174 -55.5h-334v-325h-20z" />
    <glyph glyph-name="Q" unicode="Q" horiz-adv-x="796" 
d="M600 62l-134 88l12 18l141 -93q129 99 129 282q0 165 -101 259t-249 94t-249 -94t-101 -259t101 -259t249 -94q114 0 202 58zM759 -43l-140 92q-95 -65 -221 -65q-159 0 -264.5 100.5t-105.5 272.5t105.5 272.5t264.5 100.5t264.5 -100.5t105.5 -272.5q0 -190 -130 -294
l133 -88z" />
    <glyph glyph-name="R" unicode="R" horiz-adv-x="685" 
d="M75 694v-338h340q102 0 156 47.5t54 115.5q0 99 -45.5 137t-133.5 38h-371zM55 0v714h393q105 0 151 -48.5t46 -146.5q0 -38 -15.5 -73.5t-56 -64t-98.5 -32.5l-1 -2q82 -1 120 -38t38 -112q0 -163 16 -197h-20q-16 32 -16 178q0 45 -7 72t-29 48t-63 29.5t-108 8.5h-330
v-336h-20z" />
    <glyph glyph-name="S" unicode="S" horiz-adv-x="667" 
d="M616 514h-20q-6 96 -68.5 146t-200.5 50q-249 0 -249 -165q0 -55 33.5 -90t119.5 -54l240 -52q163 -35 163 -164q0 -27 -5.5 -52t-24 -53t-48.5 -48.5t-83 -34t-123 -13.5q-81 0 -141 17t-92.5 41.5t-52 61t-25 66t-6.5 65.5h20q1 -66 23.5 -112t64 -71.5t93.5 -36.5
t120 -11q76 0 129.5 16t80.5 44t38.5 57t11.5 62q0 60 -36.5 95.5t-117.5 52.5l-226 48q-92 19 -134 57.5t-42 110.5q0 183 264 183q85 0 144.5 -17.5t89.5 -50.5t43.5 -67.5t16.5 -80.5z" />
    <glyph glyph-name="T" unicode="T" horiz-adv-x="574" 
d="M277 0v694h-298v20h616v-20h-298v-694h-20z" />
    <glyph glyph-name="U" unicode="U" horiz-adv-x="722" 
d="M50 261v453h20v-455q0 -255 291 -255t291 255v455h20v-453q0 -277 -311 -277t-311 277z" />
    <glyph glyph-name="V" unicode="V" horiz-adv-x="630" 
d="M302 0l-318 714h26l305 -688l305 688h26l-318 -714h-26z" />
    <glyph glyph-name="W" unicode="W" horiz-adv-x="982" 
d="M219 0l-238 714h20l230 -688h2l243 688h30l243 -688h2l230 688h20l-238 -714h-26l-245 694h-2l-245 -694h-26z" />
    <glyph glyph-name="X" unicode="X" horiz-adv-x="612" 
d="M-18 0l309 365l-298 349h26l287 -336l287 336h26l-298 -349l309 -365h-26l-298 352l-298 -352h-26z" />
    <glyph glyph-name="Y" unicode="Y" horiz-adv-x="630" 
d="M305 0v301l-337 413h29l318 -391l318 391h29l-337 -413v-301h-20z" />
    <glyph glyph-name="Z" unicode="Z" horiz-adv-x="574" 
d="M-19 0v29l575 665h-541v20h567v-24l-581 -670h592v-20h-612z" />
    <glyph glyph-name="bracketleft" unicode="[" horiz-adv-x="260" 
d="M70 -190v904h136v-20h-116v-864h116v-20h-136z" />
    <glyph glyph-name="backslash" unicode="\" horiz-adv-x="407" 
d="M402 -16l-417 746h20l417 -746h-20z" />
    <glyph glyph-name="bracketright" unicode="]" horiz-adv-x="260" 
d="M170 -170v864h-116v20h136v-904h-136v20h116z" />
    <glyph glyph-name="asciicircum" unicode="^" horiz-adv-x="600" 
d="M61 251l229 453h20l229 -453h-20l-219 433l-219 -433h-20z" />
    <glyph glyph-name="underscore" unicode="_" horiz-adv-x="500" 
d="M0 -125v50h500v-50h-500z" />
    <glyph glyph-name="grave" unicode="`" 
d="M102 600l-168 139h32l164 -139h-28z" />
    <glyph glyph-name="a" unicode="a" horiz-adv-x="564" 
d="M485 205v95h-2q-15 -26 -134 -31l-156 -6q-149 -6 -149 -125q0 -66 51 -100t133 -34q125 0 191 57t66 144zM586 27v-20q-19 -7 -47 -7q-54 0 -54 51v61h-2q-59 -128 -256 -128q-94 0 -148.5 39.5t-54.5 115.5q0 66 43 103.5t124 40.5l169 6q80 2 102.5 16.5t22.5 60.5v28
q0 61 -52 87.5t-160 26.5q-109 0 -154.5 -34.5t-51.5 -116.5h-20q6 97 62 134t164 37q121 0 176.5 -32t55.5 -101v-332q0 -24 7 -33.5t27 -9.5q21 0 47 7z" />
    <glyph glyph-name="b" unicode="b" horiz-adv-x="612" 
d="M55 0v714h20v-341h2q30 81 95.5 118t148.5 37q131 0 199 -78t68 -194q0 -117 -68 -194.5t-199 -77.5q-88 0 -151.5 39.5t-92.5 114.5h-2v-138h-20zM75 256q0 -107 62 -179.5t184 -72.5q123 0 185 72.5t62 179.5t-62 179.5t-185 72.5q-122 0 -184 -72.5t-62 -179.5z" />
    <glyph glyph-name="c" unicode="c" horiz-adv-x="648" 
d="M580 174h20q-22 -89 -89.5 -139.5t-180.5 -50.5q-128 0 -205 76.5t-77 195.5t77 195.5t205 76.5q113 0 182 -46t84 -130h-20q-37 156 -246 156q-124 0 -193 -72.5t-69 -179.5t69 -179.5t193 -72.5q100 0 164 43.5t86 126.5z" />
    <glyph glyph-name="d" unicode="d" horiz-adv-x="612" 
d="M537 0v138h-2q-29 -75 -92.5 -114.5t-151.5 -39.5q-131 0 -199 77.5t-68 194.5q0 116 68 194t199 78q83 0 148.5 -37t95.5 -118h2v341h20v-714h-20zM44 256q0 -107 62 -179.5t185 -72.5q122 0 184 72.5t62 179.5t-62 179.5t-184 72.5q-123 0 -185 -72.5t-62 -179.5z" />
    <glyph glyph-name="e" unicode="e" horiz-adv-x="593" 
d="M44 276h515q-6 97 -73.5 164.5t-179.5 67.5q-118 0 -187 -66t-75 -166zM579 256h-535q0 -107 69 -179.5t193 -72.5q194 0 245 174h20q-7 -32 -22 -61.5t-43.5 -61.5t-80 -51.5t-119.5 -19.5q-128 0 -205 76.5t-77 195.5t77 195.5t205 76.5q116 0 194.5 -73.5t78.5 -198.5
z" />
    <glyph glyph-name="f" unicode="f" horiz-adv-x="278" 
d="M123 0v492h-122v20h122v101q0 62 34.5 84.5t98.5 22.5q14 0 60 -2v-20q-18 2 -29 2h-28q-68 0 -92 -22.5t-24 -75.5v-90h149v-20h-149v-492h-20z" />
    <glyph glyph-name="g" unicode="g" horiz-adv-x="630" 
d="M555 382v130h20v-496q0 -120 -68.5 -178t-194.5 -58q-47 0 -85 6t-78.5 22.5t-66 53t-31.5 90.5h20q6 -34 17 -58t36 -47t71.5 -35t113.5 -12q246 0 246 217v137h-2q-66 -144 -251 -144q-125 0 -199 68.5t-74 190.5t74 190.5t199 68.5q99 0 162.5 -38.5t88.5 -107.5h2z
M49 269q0 -115 67 -177t186 -62q121 0 187 63t66 176q0 116 -67 177.5t-186 61.5t-186 -62t-67 -177z" />
    <glyph glyph-name="h" unicode="h" horiz-adv-x="593" 
d="M55 0v714h20v-317h2q57 131 231 131q70 0 118 -17.5t71 -49.5t32 -65t9 -74v-322h-20v322q0 37 -7.5 66t-28 58t-64.5 45.5t-110 16.5q-61 0 -106 -17t-68.5 -41t-37.5 -57t-17.5 -57t-3.5 -49v-287h-20z" />
    <glyph glyph-name="i" unicode="i" 
d="M55 605v109h20v-109h-20zM55 0v512h20v-512h-20z" />
    <glyph glyph-name="j" unicode="j" 
d="M55 605v109h20v-109h-20zM55 -74v586h20v-603q0 -58 -28.5 -84.5t-93.5 -26.5q-11 0 -31.5 1.5t-29.5 1.5v20q20 -3 67 -3q56 0 76 24.5t20 83.5z" />
    <glyph glyph-name="k" unicode="k" horiz-adv-x="537" 
d="M55 0v714h20v-500l408 298h35l-268 -196l288 -316h-26l-278 305l-159 -117v-188h-20z" />
    <glyph glyph-name="l" unicode="l" 
d="M55 0v714h20v-714h-20z" />
    <glyph glyph-name="m" unicode="m" horiz-adv-x="944" 
d="M55 0v512h20v-98h2q51 114 208 114q68 0 118.5 -30t67.5 -90h2q26 61 75.5 90.5t110.5 29.5q70 0 118 -17.5t71 -49.5t32 -65t9 -74v-322h-20v322q0 37 -7.5 66t-28 58t-64.5 45.5t-110 16.5q-75 0 -126 -46.5t-51 -131.5v-330h-20v330q0 93 -48 135.5t-129 42.5
q-100 0 -155 -49.5t-55 -142.5v-316h-20z" />
    <glyph glyph-name="n" unicode="n" horiz-adv-x="593" 
d="M55 0v512h20v-115h2q57 131 231 131q70 0 118 -17.5t71 -49.5t32 -65t9 -74v-322h-20v322q0 37 -7.5 66t-28 58t-64.5 45.5t-110 16.5q-61 0 -106 -17t-68.5 -41t-37.5 -57t-17.5 -57t-3.5 -49v-287h-20z" />
    <glyph glyph-name="o" unicode="o" horiz-adv-x="612" 
d="M44 256q0 -107 69 -179.5t193 -72.5q123 0 192.5 72.5t69.5 179.5t-69.5 179.5t-192.5 72.5q-124 0 -193 -72.5t-69 -179.5zM24 256q0 119 77 195.5t205 76.5t205 -76.5t77 -195.5t-77 -195.5t-205 -76.5t-205 76.5t-77 195.5z" />
    <glyph glyph-name="p" unicode="p" horiz-adv-x="612" 
d="M55 -202v714h20v-138h2q29 75 92.5 114.5t151.5 39.5q131 0 199 -78t68 -194q0 -117 -68 -194.5t-199 -77.5q-83 0 -148.5 37t-95.5 118h-2v-341h-20zM75 256q0 -107 62 -179.5t184 -72.5q123 0 185 72.5t62 179.5t-62 179.5t-185 72.5q-122 0 -184 -72.5t-62 -179.5z
" />
    <glyph glyph-name="q" unicode="q" horiz-adv-x="612" 
d="M537 -202v341h-2q-30 -81 -95.5 -118t-148.5 -37q-131 0 -199 77.5t-68 194.5q0 116 68 194t199 78q88 0 151.5 -39.5t92.5 -114.5h2v138h20v-714h-20zM44 256q0 -107 62 -179.5t185 -72.5q122 0 184 72.5t62 179.5t-62 179.5t-184 72.5q-123 0 -185 -72.5t-62 -179.5z
" />
    <glyph glyph-name="r" unicode="r" horiz-adv-x="315" 
d="M55 0v512h20v-138h2q21 74 79.5 114t131.5 40q10 0 43 -3v-20q-15 3 -44 3q-92 0 -152 -67t-60 -188v-253h-20z" />
    <glyph glyph-name="s" unicode="s" horiz-adv-x="500" 
d="M11 160h20q5 -40 15 -66t34 -48t68 -32t111 -10q210 0 210 126q0 57 -32.5 81t-115.5 34l-155 19q-137 18 -137 127q0 137 223 137q108 0 159.5 -37t55.5 -129h-20q-4 84 -50.5 115t-150.5 31q-197 0 -197 -117q0 -48 29 -73.5t92 -33.5l155 -19q92 -12 128 -42t36 -94
q0 -145 -230 -145q-62 0 -106.5 10t-69.5 24.5t-41 40t-21.5 47t-9.5 54.5z" />
    <glyph glyph-name="t" unicode="t" horiz-adv-x="296" 
d="M123 96v396h-122v20h122v176h20v-176h149v-20h-149v-397q0 -46 19 -63.5t72 -17.5q32 0 72 5v-20q-45 -5 -72 -5q-65 0 -88 23.5t-23 78.5z" />
    <glyph glyph-name="u" unicode="u" horiz-adv-x="593" 
d="M538 512v-512h-20v115l-2 -2q-57 -129 -231 -129q-70 0 -118 17.5t-71 49.5t-32 65t-9 74v322h20v-322q0 -37 7.5 -66t28 -58t64.5 -45.5t110 -16.5q60 0 105 17.5t68.5 41.5t38 56t18 55t3.5 46v292h20z" />
    <glyph glyph-name="v" unicode="v" horiz-adv-x="538" 
d="M259 0l-259 512h23l246 -492l246 492h23l-259 -512h-20z" />
    <glyph glyph-name="w" unicode="w" horiz-adv-x="852" 
d="M195 0l-208 512h26l197 -492l200 492h32l200 -492l197 492h26l-208 -512h-30l-201 492l-201 -492h-30z" />
    <glyph glyph-name="x" unicode="x" horiz-adv-x="520" 
d="M-9 0l253 267l-232 245h30l218 -230l218 230h30l-234 -245l255 -267h-29l-240 251l-240 -251h-29z" />
    <glyph glyph-name="y" unicode="y" horiz-adv-x="500" 
d="M250 1l-263 511h26l249 -487l225 487h26l-272 -580q-32 -66 -59.5 -85.5t-84.5 -19.5h-40v20h46q43 0 67.5 16.5t45.5 63.5z" />
    <glyph glyph-name="z" unicode="z" horiz-adv-x="481" 
d="M3 27l432 465h-405v20h431v-24l-438 -468h455v-20h-475v27z" />
    <glyph glyph-name="braceleft" unicode="{" horiz-adv-x="260" 
d="M236 -190h-54q-48 0 -65 29t-17 86v167q0 156 -70 160v20q70 4 70 160v167q0 57 17 86t65 29h54v-20h-54q-39 0 -50.5 -23t-11.5 -90v-156q0 -56 -12.5 -92.5t-25.5 -49t-32 -21.5q19 -9 32 -21.5t25.5 -49t12.5 -92.5v-156q0 -67 11.5 -90t50.5 -23h54v-20z" />
    <glyph glyph-name="bar" unicode="|" horiz-adv-x="222" 
d="M101 -16v746h20v-746h-20z" />
    <glyph glyph-name="braceright" unicode="}" horiz-adv-x="260" 
d="M24 714h54q48 0 65 -29t17 -86v-167q0 -156 70 -160v-20q-70 -4 -70 -160v-167q0 -57 -17 -86t-65 -29h-54v20h54q39 0 50.5 23t11.5 90v156q0 56 12.5 92.5t25.5 49t32 21.5q-19 9 -32 21.5t-25.5 49t-12.5 92.5v156q0 67 -11.5 90t-50.5 23h-54v20z" />
    <glyph glyph-name="asciitilde" unicode="~" horiz-adv-x="600" 
d="M93 205l-14 14q27 44 55 61.5t67 17.5q52 0 114 -34t99 -34q19 0 45.5 19t46.5 52l15 -15q-22 -36 -53 -56t-54 -20q-45 0 -104 34q-63 34 -109 34q-34 0 -57 -16t-51 -57z" />
    <glyph glyph-name="uni00A0" unicode="&#xa0;" horiz-adv-x="324" 
 />
    <glyph glyph-name="exclamdown" unicode="&#xa1;" horiz-adv-x="222" 
d="M101 432v96h20v-96h-20zM101 -186v532h20v-532h-20z" />
    <glyph glyph-name="cent" unicode="&#xa2;" horiz-adv-x="648" 
d="M316 -118v103q-122 4 -195 80t-73 191t73 191t195 80v103h20v-102q110 -2 177.5 -48t82.5 -128h-20q-38 152 -240 156v-504q200 5 244 170h20q-22 -88 -87.5 -138t-176.5 -52v-102h-20zM316 5v502q-117 -4 -182.5 -75.5t-65.5 -175.5t65.5 -175.5t182.5 -75.5z" />
    <glyph glyph-name="sterling" unicode="&#xa3;" horiz-adv-x="648" 
d="M157 328h-91v20h81q-7 15 -24.5 45.5t-26.5 48.5t-17 46.5t-8 55.5q0 82 66 129t175 47q134 0 202 -53.5t68 -180.5v-14h-20q0 45 -6 78t-22.5 62.5t-44 48t-72 29t-105.5 10.5q-93 0 -157 -38.5t-64 -119.5q0 -25 8 -52t17.5 -45.5t26 -49.5t24.5 -47h240v-20h-230
q24 -57 24 -105q0 -45 -29 -94.5t-101 -121.5h2q52 31 73.5 38t58.5 7q36 0 116 -24q82 -24 113 -24q74 0 153 90l14 -16q-48 -51 -85.5 -72.5t-81.5 -21.5q-34 0 -116 24q-80 24 -113 24q-37 0 -68 -9.5t-76 -38.5l-14 16q134 132 134 224q0 54 -24 104z" />
    <glyph glyph-name="currency" unicode="&#xa4;" horiz-adv-x="648" 
d="M95 352q0 -94 67.5 -161.5t161.5 -67.5t161.5 67.5t67.5 161.5t-67.5 161.5t-161.5 67.5t-161.5 -67.5t-67.5 -161.5zM87 130l54 54q-66 69 -66 168t66 168l-54 54l15 15l54 -54q71 66 168 66q99 0 168 -66l54 54l15 -15l-54 -54q66 -71 66 -168t-66 -168l54 -54l-15 -15
l-54 54q-69 -66 -168 -66q-97 0 -168 66l-54 -54z" />
    <glyph glyph-name="yen" unicode="&#xa5;" horiz-adv-x="648" 
d="M314 0v186h-224v20h224v95l-7 9h-217v20h201l-294 374h29l293 -374h11l292 374h29l-294 -374h201v-20h-217l-7 -9v-95h224v-20h-224v-186h-20z" />
    <glyph glyph-name="brokenbar" unicode="&#xa6;" horiz-adv-x="222" 
d="M101 460v270h20v-270h-20zM101 -16v270h20v-270h-20z" />
    <glyph glyph-name="section" unicode="&#xa7;" horiz-adv-x="648" 
d="M451 366l-238 114q-51 -5 -96 -37t-45 -87q0 -46 28 -72.5t127 -74.5l196 -94q77 2 115 37.5t38 86.5q0 41 -26 67t-99 60zM110 37h20q0 -40 7 -67t27 -51.5t61 -36.5t105 -12q177 0 177 117q0 65 -84 106l-278 134q-93 44 -93 122q0 60 39 97t102 48v2q-74 32 -74 103
q0 131 190 131q68 0 112 -13.5t64.5 -41t27.5 -55t8 -69.5h-20q0 82 -40.5 120.5t-152.5 38.5q-169 0 -169 -111q0 -38 23.5 -60t104.5 -62l230 -113q60 -30 79.5 -58.5t19.5 -70.5q0 -53 -39 -92.5t-103 -41.5v-3q73 -40 73 -109q0 -139 -195 -139q-123 0 -172.5 44.5
t-49.5 142.5z" />
    <glyph glyph-name="dieresis" unicode="&#xa8;" 
d="M-28 616h-20v109h20v-109zM178 616h-20v109h20v-109z" />
    <glyph glyph-name="copyright" unicode="&#xa9;" horiz-adv-x="800" 
d="M47 357q0 -147 103 -250t250 -103t250 103t103 250t-103 250t-250 103t-250 -103t-103 -250zM27 357q0 154 109.5 263.5t263.5 109.5t263.5 -109.5t109.5 -263.5t-109.5 -263.5t-263.5 -109.5t-263.5 109.5t-109.5 263.5zM578 281h20q-10 -73 -60 -116.5t-128 -43.5
q-103 0 -164 65.5t-61 171.5q0 109 59 171.5t164 62.5q77 0 128.5 -40.5t61.5 -113.5h-20q-11 66 -56 100t-113 34q-97 0 -150.5 -57.5t-53.5 -155.5q0 -96 55 -157t150 -61q69 0 113 37t55 103z" />
    <glyph glyph-name="ordfeminine" unicode="&#xaa;" horiz-adv-x="372" 
d="M305 523v60h-2q-11 -18 -95 -18l-93 -4q-96 -4 -96 -76q0 -38 33 -59.5t86 -21.5q88 0 133 44q21 19 27.5 35.5t6.5 39.5zM319 636v-191q0 -20 3.5 -24.5t18.5 -4.5q19 0 31 4v-14q-11 -4 -32 -4q-17 0 -26 6.5t-9 26.5v33h-2q-38 -78 -159 -78q-65 0 -102 25.5t-37 75.5
q0 79 107 84l96 4q63 2 80 11t17 34v13q0 38 -34 54.5t-104 16.5q-69 0 -99 -21t-34 -71h-14q4 60 39.5 83t101.5 23q87 0 122.5 -20t35.5 -66z" />
    <glyph glyph-name="guillemotleft" unicode="&#xab;" horiz-adv-x="389" 
d="M183 275l118 138v-25l-104 -122l104 -122v-25l-118 138v18zM72 275l118 138v-25l-104 -122l104 -122v-25l-118 138v18z" />
    <glyph glyph-name="logicalnot" unicode="&#xac;" horiz-adv-x="600" 
d="M533 108v232h-486v20h506v-252h-20z" />
    <glyph glyph-name="uni00AD" unicode="&#xad;" horiz-adv-x="370" 
d="M292 256h-214v20h214v-20z" />
    <glyph glyph-name="registered" unicode="&#xae;" horiz-adv-x="800" 
d="M47 357q0 -147 103 -250t250 -103t250 103t103 250t-103 250t-250 103t-250 -103t-103 -250zM27 357q0 154 109.5 263.5t263.5 109.5t263.5 -109.5t109.5 -263.5t-109.5 -263.5t-263.5 -109.5t-263.5 109.5t-109.5 263.5zM284 558v-198h149q121 0 121 97q0 56 -32.5 78.5
t-77.5 22.5h-160zM264 136v442h175q135 0 135 -122q0 -99 -112 -116l132 -204h-26l-132 204h-152v-204h-20z" />
    <glyph glyph-name="macron" unicode="&#xaf;" 
d="M253 659h-376v20h376v-20z" />
    <glyph glyph-name="degree" unicode="&#xb0;" horiz-adv-x="400" 
d="M77 577q0 -51 36 -87t87 -36t87 36t36 87t-36 87t-87 36t-87 -36t-36 -87zM57 577q0 60 41.5 101.5t101.5 41.5t101.5 -41.5t41.5 -101.5t-41.5 -101.5t-101.5 -41.5t-101.5 41.5t-41.5 101.5z" />
    <glyph glyph-name="plusminus" unicode="&#xb1;" horiz-adv-x="600" 
d="M47 0v20h506v-20h-506zM290 306v200h20v-200h243v-20h-243v-200h-20v200h-243v20h243z" />
    <glyph glyph-name="twosuperior" unicode="&#xb2;" horiz-adv-x="421" 
d="M48 572h-14q0 20 1.5 33.5t10 38t24.5 39.5t49.5 27t79.5 12q45 0 77.5 -12.5t48 -32.5t22 -38.5t6.5 -36.5q0 -79 -96 -132l-119 -63q-51 -28 -72 -50.5t-27 -56.5h327v-14h-341q2 47 27 74.5t92 64.5l123 66q31 17 51.5 45.5t20.5 60.5q0 111 -147 111
q-74 0 -109 -33.5t-35 -102.5z" />
    <glyph glyph-name="threesuperior" unicode="&#xb3;" horiz-adv-x="421" 
d="M175 520h27q74 0 110 24t36 64q0 100 -144 100q-83 0 -119.5 -32t-40.5 -98h-14q2 70 42 107t132 37q80 0 119 -29.5t39 -80.5q0 -87 -108 -98v-2q118 -12 118 -114q0 -48 -42 -86t-137 -38q-88 0 -132.5 37.5t-44.5 104.5v13h14v-9q0 -132 164 -132q87 0 125.5 34.5
t38.5 76.5q0 107 -154 107h-29v14z" />
    <glyph glyph-name="acute" unicode="&#xb4;" 
d="M0 601l164 139h32l-168 -139h-28z" />
    <glyph glyph-name="mu" unicode="&#xb5;" horiz-adv-x="593" 
d="M538 512v-512h-20v115l-2 -2q-57 -129 -231 -129q-89 0 -141 28.5t-67 68.5v4h-2v-287h-20v714h20v-322q0 -37 7.5 -66t28 -58t64.5 -45.5t110 -16.5q60 0 105 17.5t68.5 41.5t38 56t18 55t3.5 46v292h20z" />
    <glyph glyph-name="paragraph" unicode="&#xb6;" horiz-adv-x="600" 
d="M273 344v350q-80 0 -129.5 -46t-49.5 -130q0 -70 53.5 -122t125.5 -52zM273 -134v458q-81 0 -140 57.5t-59 136.5q0 95 57 145.5t158 50.5h199v-848h-20v828h-175v-828h-20z" />
    <glyph glyph-name="periodcentered" unicode="&#xb7;" horiz-adv-x="168" 
d="M44 332q0 17 11.5 28.5t28.5 11.5t28.5 -11.5t11.5 -28.5t-11.5 -28.5t-28.5 -11.5t-28.5 11.5t-11.5 28.5z" />
    <glyph glyph-name="cedilla" unicode="&#xb8;" horiz-adv-x="278" 
d="M64 -76l73 76h23l-58 -60l2 -2q24 8 50 8q37 0 59.5 -16t22.5 -45q0 -75 -104 -75q-63 0 -116 21l8 19q48 -20 108 -20q84 0 84 54q0 42 -62 42q-46 0 -73 -14z" />
    <glyph glyph-name="onesuperior" unicode="&#xb9;" horiz-adv-x="388" 
d="M204 286v410q-55 -58 -148 -79v14q92 21 142 79h20v-424h-14z" />
    <glyph glyph-name="ordmasculine" unicode="&#xba;" horiz-adv-x="398" 
d="M30 556q0 -65 45 -108.5t124 -43.5t124 43.5t45 108.5t-45 108.5t-124 43.5t-124 -43.5t-45 -108.5zM16 556q0 73 50 119.5t133 46.5t133 -46.5t50 -119.5t-50 -119.5t-133 -46.5t-133 46.5t-50 119.5z" />
    <glyph glyph-name="guillemotright" unicode="&#xbb;" horiz-adv-x="389" 
d="M88 413l118 -138v-18l-118 -138v25l104 122l-104 122v25zM199 413l118 -138v-18l-118 -138v25l104 122l-104 122v25z" />
    <glyph glyph-name="onequarter" unicode="&#xbc;" horiz-adv-x="972" 
d="M179 -24l478 752h20l-478 -752h-20zM204 286v410q-55 -58 -148 -79v14q92 21 142 79h20v-424h-14zM808 410l-244 -284h244v284zM808 0v112h-258v17l252 295h20v-298h94v-14h-94v-112h-14z" />
    <glyph glyph-name="onehalf" unicode="&#xbd;" horiz-adv-x="972" 
d="M179 -24l478 752h20l-478 -752h-20zM916 0h-341q2 47 27 74.5t92 64.5l123 66q31 17 51.5 45.5t20.5 60.5q0 111 -147 111q-74 0 -109 -33.5t-35 -102.5h-14q0 20 1.5 33.5t10 38t24.5 39.5t49.5 27t79.5 12q45 0 77.5 -12.5t48 -32.5t22 -38.5t6.5 -36.5q0 -79 -96 -132
l-119 -63q-51 -28 -72 -50.5t-27 -56.5h327v-14zM204 286v410q-55 -58 -148 -79v14q92 21 142 79h20v-424h-14z" />
    <glyph glyph-name="threequarters" unicode="&#xbe;" horiz-adv-x="972" 
d="M265 -24l478 752h20l-478 -752h-20zM215 520h27q74 0 110 24t36 64q0 100 -144 100q-83 0 -119.5 -32t-40.5 -98h-14q2 70 42 107t132 37q80 0 119 -29.5t39 -80.5q0 -87 -108 -98v-2q118 -12 118 -114q0 -48 -42 -86t-137 -38q-88 0 -132.5 37.5t-44.5 104.5v13h14v-9
q0 -132 164 -132q87 0 125.5 34.5t38.5 76.5q0 107 -154 107h-29v14zM808 410l-244 -284h244v284zM808 0v112h-258v17l252 295h20v-298h94v-14h-94v-112h-14z" />
    <glyph glyph-name="questiondown" unicode="&#xbf;" horiz-adv-x="611" 
d="M301 432v96h20v-96h-20zM301 303v42h20v-28q0 -65 -12 -89.5t-68 -59.5l-70 -45q-52 -35 -71 -67t-19 -80q0 -158 229 -158q60 0 103.5 12.5t68 31t39.5 49t19.5 58t5.5 66.5h20q-1 -39 -5 -67.5t-19.5 -63t-41.5 -55.5t-74.5 -36t-115.5 -15q-249 0 -249 177
q0 58 20.5 91t72.5 69l86 57q40 26 50.5 45.5t10.5 65.5z" />
    <glyph glyph-name="Agrave" unicode="&#xc0;" horiz-adv-x="648" 
d="M324 694l-199 -438h398zM-17 0l328 714h26l328 -714h-26l-107 236h-416l-107 -236h-26zM306 770l-168 139h32l164 -139h-28z" />
    <glyph glyph-name="Aacute" unicode="&#xc1;" horiz-adv-x="648" 
d="M324 694l-199 -438h398zM-17 0l328 714h26l328 -714h-26l-107 236h-416l-107 -236h-26zM311 771l164 139h32l-168 -139h-28z" />
    <glyph glyph-name="Acircumflex" unicode="&#xc2;" horiz-adv-x="648" 
d="M324 694l-199 -438h398zM-17 0l328 714h26l328 -714h-26l-107 236h-416l-107 -236h-26zM142 771l165 139h32l165 -139h-32l-149 125l-149 -125h-32z" />
    <glyph glyph-name="Atilde" unicode="&#xc3;" horiz-adv-x="648" 
d="M324 694l-199 -438h398zM-17 0l328 714h26l328 -714h-26l-107 236h-416l-107 -236h-26zM181 800h-20q13 81 90 81q19 0 43 -11l75 -39q24 -11 39 -11q21 0 38.5 14.5t22.5 46.5h20q-5 -39 -27 -60t-55 -21q-22 0 -45 12l-74 38q-19 11 -40 11q-23 0 -42 -15t-25 -46z" />
    <glyph glyph-name="Adieresis" unicode="&#xc4;" horiz-adv-x="648" 
d="M324 694l-199 -438h398zM-17 0l328 714h26l328 -714h-26l-107 236h-416l-107 -236h-26zM232 786h-20v109h20v-109zM438 786h-20v109h20v-109z" />
    <glyph glyph-name="Aring" unicode="&#xc5;" horiz-adv-x="648" 
d="M324 694l-199 -438h398zM-17 0l328 714h26l328 -714h-26l-107 236h-416l-107 -236h-26zM247 850q0 -32 22 -54t54 -22t54 22t22 54t-22 54t-54 22t-54 -22t-22 -54zM227 850q0 40 28 68t68 28t68 -28t28 -68t-28 -68t-68 -28t-68 28t-28 68z" />
    <glyph glyph-name="AE" unicode="&#xc6;" horiz-adv-x="1037" 
d="M453 694l-258 -396h322v396h-64zM-25 0l468 714h586v-20h-492v-312h453v-20h-453v-342h492v-20h-512v278h-335l-181 -278h-26z" />
    <glyph glyph-name="Ccedilla" unicode="&#xc7;" horiz-adv-x="796" 
d="M736 271h20q-10 -91 -65.5 -158t-131.5 -98t-161 -31h-1l-42 -44l2 -2q24 8 50 8q37 0 59.5 -16t22.5 -45q0 -75 -104 -75q-63 0 -116 21l8 19q48 -20 108 -20q84 0 84 54q0 42 -62 42q-46 0 -73 -14l-17 12l58 61q-64 3 -121 24q-103 39 -164.5 129t-61.5 219
q0 172 105.5 272.5t264.5 100.5q132 0 223 -55.5t118 -168.5h-20q-22 89 -102.5 146.5t-218.5 57.5q-148 0 -249 -94t-101 -259t101 -259t249 -94q139 0 234 79t104 188z" />
    <glyph glyph-name="Egrave" unicode="&#xc8;" horiz-adv-x="630" 
d="M55 0v714h556v-20h-536v-312h513v-20h-513v-342h542v-20h-562zM340 770l-168 139h32l164 -139h-28z" />
    <glyph glyph-name="Eacute" unicode="&#xc9;" horiz-adv-x="630" 
d="M55 0v714h556v-20h-536v-312h513v-20h-513v-342h542v-20h-562zM321 771l164 139h32l-168 -139h-28z" />
    <glyph glyph-name="Ecircumflex" unicode="&#xca;" horiz-adv-x="630" 
d="M55 0v714h556v-20h-536v-312h513v-20h-513v-342h542v-20h-562zM155 771l165 139h32l165 -139h-32l-149 125l-149 -125h-32z" />
    <glyph glyph-name="Edieresis" unicode="&#xcb;" horiz-adv-x="630" 
d="M55 0v714h556v-20h-536v-312h513v-20h-513v-342h542v-20h-562zM241 786h-20v109h20v-109zM447 786h-20v109h20v-109z" />
    <glyph glyph-name="Igrave" unicode="&#xcc;" 
d="M55 0v714h20v-714h-20zM50 770l-168 139h32l164 -139h-28z" />
    <glyph glyph-name="Iacute" unicode="&#xcd;" 
d="M55 0v714h20v-714h-20zM53 771l164 139h32l-168 -139h-28z" />
    <glyph glyph-name="Icircumflex" unicode="&#xce;" 
d="M55 0v714h20v-714h-20zM-116 771l165 139h32l165 -139h-32l-149 125l-149 -125h-32z" />
    <glyph glyph-name="Idieresis" unicode="&#xcf;" 
d="M55 0v714h20v-714h-20zM-28 786h-20v109h20v-109zM178 786h-20v109h20v-109z" />
    <glyph glyph-name="Eth" unicode="&#xd0;" horiz-adv-x="741" 
d="M75 362v-342h328q74 0 129.5 28t87 76.5t46.5 106.5t15 126t-15 126t-46.5 106.5t-87 76.5t-129.5 28h-328v-312h331v-20h-331zM55 0v362h-76v20h76v332h348q144 0 221 -97t77 -260t-77 -260t-221 -97h-348z" />
    <glyph glyph-name="Ntilde" unicode="&#xd1;" horiz-adv-x="722" 
d="M55 0v714h26l564 -688h2v688h20v-714h-26l-564 688h-2v-688h-20zM217 800h-20q13 81 90 81q19 0 43 -11l75 -39q24 -11 39 -11q21 0 38.5 14.5t22.5 46.5h20q-5 -39 -27 -60t-55 -21q-22 0 -45 12l-74 38q-19 11 -40 11q-23 0 -42 -15t-25 -46z" />
    <glyph glyph-name="Ograve" unicode="&#xd2;" horiz-adv-x="796" 
d="M48 357q0 -165 101 -259t249 -94t249 94t101 259t-101 259t-249 94t-249 -94t-101 -259zM28 357q0 172 105.5 272.5t264.5 100.5t264.5 -100.5t105.5 -272.5t-105.5 -272.5t-264.5 -100.5t-264.5 100.5t-105.5 272.5zM404 770l-168 139h32l164 -139h-28z" />
    <glyph glyph-name="Oacute" unicode="&#xd3;" horiz-adv-x="796" 
d="M48 357q0 -165 101 -259t249 -94t249 94t101 259t-101 259t-249 94t-249 -94t-101 -259zM28 357q0 172 105.5 272.5t264.5 100.5t264.5 -100.5t105.5 -272.5t-105.5 -272.5t-264.5 -100.5t-264.5 100.5t-105.5 272.5zM379 771l164 139h32l-168 -139h-28z" />
    <glyph glyph-name="Ocircumflex" unicode="&#xd4;" horiz-adv-x="796" 
d="M48 357q0 -165 101 -259t249 -94t249 94t101 259t-101 259t-249 94t-249 -94t-101 -259zM28 357q0 172 105.5 272.5t264.5 100.5t264.5 -100.5t105.5 -272.5t-105.5 -272.5t-264.5 -100.5t-264.5 100.5t-105.5 272.5zM218 771l165 139h32l165 -139h-32l-149 125
l-149 -125h-32z" />
    <glyph glyph-name="Otilde" unicode="&#xd5;" horiz-adv-x="796" 
d="M48 357q0 -165 101 -259t249 -94t249 94t101 259t-101 259t-249 94t-249 -94t-101 -259zM28 357q0 172 105.5 272.5t264.5 100.5t264.5 -100.5t105.5 -272.5t-105.5 -272.5t-264.5 -100.5t-264.5 100.5t-105.5 272.5zM256 800h-20q13 81 90 81q19 0 43 -11l75 -39
q24 -11 39 -11q21 0 38.5 14.5t22.5 46.5h20q-5 -39 -27 -60t-55 -21q-22 0 -45 12l-74 38q-19 11 -40 11q-23 0 -42 -15t-25 -46z" />
    <glyph glyph-name="Odieresis" unicode="&#xd6;" horiz-adv-x="796" 
d="M48 357q0 -165 101 -259t249 -94t249 94t101 259t-101 259t-249 94t-249 -94t-101 -259zM28 357q0 172 105.5 272.5t264.5 100.5t264.5 -100.5t105.5 -272.5t-105.5 -272.5t-264.5 -100.5t-264.5 100.5t-105.5 272.5zM304 786h-20v109h20v-109zM510 786h-20v109h20v-109z
" />
    <glyph glyph-name="multiply" unicode="&#xd7;" horiz-adv-x="600" 
d="M79 46l208 207l-208 207l14 14l207 -208l207 208l14 -14l-208 -207l208 -207l-14 -14l-207 208l-207 -208z" />
    <glyph glyph-name="Oslash" unicode="&#xd8;" horiz-adv-x="796" 
d="M31 -2l94 96q-97 103 -97 263q0 172 105.5 272.5t264.5 100.5q160 0 260 -98l95 96l12 -12l-94 -96q97 -102 97 -263q0 -172 -105.5 -272.5t-264.5 -100.5q-158 0 -261 97l-94 -95zM657 606l-504 -509q98 -93 245 -93q148 0 249 94t101 259q0 151 -91 249zM140 109
l505 509q-100 92 -247 92q-148 0 -249 -94t-101 -259q0 -153 92 -248z" />
    <glyph glyph-name="Ugrave" unicode="&#xd9;" horiz-adv-x="722" 
d="M50 261v453h20v-455q0 -255 291 -255t291 255v455h20v-453q0 -277 -311 -277t-311 277zM368 770l-168 139h32l164 -139h-28z" />
    <glyph glyph-name="Uacute" unicode="&#xda;" horiz-adv-x="722" 
d="M50 261v453h20v-455q0 -255 291 -255t291 255v455h20v-453q0 -277 -311 -277t-311 277zM347 771l164 139h32l-168 -139h-28z" />
    <glyph glyph-name="Ucircumflex" unicode="&#xdb;" horiz-adv-x="722" 
d="M50 261v453h20v-455q0 -255 291 -255t291 255v455h20v-453q0 -277 -311 -277t-311 277zM183 771l165 139h32l165 -139h-32l-149 125l-149 -125h-32z" />
    <glyph glyph-name="Udieresis" unicode="&#xdc;" horiz-adv-x="722" 
d="M50 261v453h20v-455q0 -255 291 -255t291 255v455h20v-453q0 -277 -311 -277t-311 277zM273 786h-20v109h20v-109zM479 786h-20v109h20v-109z" />
    <glyph glyph-name="Yacute" unicode="&#xdd;" horiz-adv-x="630" 
d="M305 0v301l-337 413h29l318 -391l318 391h29l-337 -413v-301h-20zM300 771l164 139h32l-168 -139h-28z" />
    <glyph glyph-name="Thorn" unicode="&#xde;" horiz-adv-x="648" 
d="M75 552v-349h339q99 0 150 45.5t51 128.5q0 175 -172 175h-368zM55 0v714h20v-142h362q198 0 198 -195q0 -83 -52 -138.5t-174 -55.5h-334v-183h-20z" />
    <glyph glyph-name="germandbls" unicode="&#xdf;" horiz-adv-x="574" 
d="M55 0v524q0 112 59.5 158t179.5 46q42 0 78 -7.5t70 -25t54 -53t20 -85.5q0 -42 -16.5 -74t-42.5 -48t-51.5 -24t-51.5 -9v-2q91 0 146 -49.5t55 -146.5q0 -37 -11.5 -71.5t-36 -67t-71 -52t-108.5 -19.5q-52 0 -85 12v20q41 -12 85 -12q57 0 99.5 17.5t64.5 46.5
t32.5 60.5t10.5 65.5q0 186 -228 186h-48v20h21q110 0 163 39t53 109q0 78 -55 114t-147 36q-120 0 -169.5 -43.5t-49.5 -144.5v-520h-20z" />
    <glyph glyph-name="agrave" unicode="&#xe0;" horiz-adv-x="564" 
d="M485 205v95h-2q-15 -26 -134 -31l-156 -6q-149 -6 -149 -125q0 -66 51 -100t133 -34q125 0 191 57t66 144zM586 27v-20q-19 -7 -47 -7q-54 0 -54 51v61h-2q-59 -128 -256 -128q-94 0 -148.5 39.5t-54.5 115.5q0 66 43 103.5t124 40.5l169 6q80 2 102.5 16.5t22.5 60.5v28
q0 61 -52 87.5t-160 26.5q-109 0 -154.5 -34.5t-51.5 -116.5h-20q6 97 62 134t164 37q121 0 176.5 -32t55.5 -101v-332q0 -24 7 -33.5t27 -9.5q21 0 47 7zM288 600l-168 139h32l164 -139h-28z" />
    <glyph glyph-name="aacute" unicode="&#xe1;" horiz-adv-x="564" 
d="M485 205v95h-2q-15 -26 -134 -31l-156 -6q-149 -6 -149 -125q0 -66 51 -100t133 -34q125 0 191 57t66 144zM586 27v-20q-19 -7 -47 -7q-54 0 -54 51v61h-2q-59 -128 -256 -128q-94 0 -148.5 39.5t-54.5 115.5q0 66 43 103.5t124 40.5l169 6q80 2 102.5 16.5t22.5 60.5v28
q0 61 -52 87.5t-160 26.5q-109 0 -154.5 -34.5t-51.5 -116.5h-20q6 97 62 134t164 37q121 0 176.5 -32t55.5 -101v-332q0 -24 7 -33.5t27 -9.5q21 0 47 7zM265 601l164 139h32l-168 -139h-28z" />
    <glyph glyph-name="acircumflex" unicode="&#xe2;" horiz-adv-x="564" 
d="M485 205v95h-2q-15 -26 -134 -31l-156 -6q-149 -6 -149 -125q0 -66 51 -100t133 -34q125 0 191 57t66 144zM586 27v-20q-19 -7 -47 -7q-54 0 -54 51v61h-2q-59 -128 -256 -128q-94 0 -148.5 39.5t-54.5 115.5q0 66 43 103.5t124 40.5l169 6q80 2 102.5 16.5t22.5 60.5v28
q0 61 -52 87.5t-160 26.5q-109 0 -154.5 -34.5t-51.5 -116.5h-20q6 97 62 134t164 37q121 0 176.5 -32t55.5 -101v-332q0 -24 7 -33.5t27 -9.5q21 0 47 7zM103 601l165 139h32l165 -139h-32l-149 125l-149 -125h-32z" />
    <glyph glyph-name="atilde" unicode="&#xe3;" horiz-adv-x="564" 
d="M485 205v95h-2q-15 -26 -134 -31l-156 -6q-149 -6 -149 -125q0 -66 51 -100t133 -34q125 0 191 57t66 144zM586 27v-20q-19 -7 -47 -7q-54 0 -54 51v61h-2q-59 -128 -256 -128q-94 0 -148.5 39.5t-54.5 115.5q0 66 43 103.5t124 40.5l169 6q80 2 102.5 16.5t22.5 60.5v28
q0 61 -52 87.5t-160 26.5q-109 0 -154.5 -34.5t-51.5 -116.5h-20q6 97 62 134t164 37q121 0 176.5 -32t55.5 -101v-332q0 -24 7 -33.5t27 -9.5q21 0 47 7zM140 630h-20q13 81 90 81q19 0 43 -11l75 -39q24 -11 39 -11q21 0 38.5 14.5t22.5 46.5h20q-5 -39 -27 -60t-55 -21
q-22 0 -45 12l-74 38q-19 11 -40 11q-23 0 -42 -15t-25 -46z" />
    <glyph glyph-name="adieresis" unicode="&#xe4;" horiz-adv-x="564" 
d="M485 205v95h-2q-15 -26 -134 -31l-156 -6q-149 -6 -149 -125q0 -66 51 -100t133 -34q125 0 191 57t66 144zM586 27v-20q-19 -7 -47 -7q-54 0 -54 51v61h-2q-59 -128 -256 -128q-94 0 -148.5 39.5t-54.5 115.5q0 66 43 103.5t124 40.5l169 6q80 2 102.5 16.5t22.5 60.5v28
q0 61 -52 87.5t-160 26.5q-109 0 -154.5 -34.5t-51.5 -116.5h-20q6 97 62 134t164 37q121 0 176.5 -32t55.5 -101v-332q0 -24 7 -33.5t27 -9.5q21 0 47 7zM191 616h-20v109h20v-109zM397 616h-20v109h20v-109z" />
    <glyph glyph-name="aring" unicode="&#xe5;" horiz-adv-x="564" 
d="M485 205v95h-2q-15 -26 -134 -31l-156 -6q-149 -6 -149 -125q0 -66 51 -100t133 -34q125 0 191 57t66 144zM586 27v-20q-19 -7 -47 -7q-54 0 -54 51v61h-2q-59 -128 -256 -128q-94 0 -148.5 39.5t-54.5 115.5q0 66 43 103.5t124 40.5l169 6q80 2 102.5 16.5t22.5 60.5v28
q0 61 -52 87.5t-160 26.5q-109 0 -154.5 -34.5t-51.5 -116.5h-20q6 97 62 134t164 37q121 0 176.5 -32t55.5 -101v-332q0 -24 7 -33.5t27 -9.5q21 0 47 7zM207 700q0 -32 22 -54t54 -22t54 22t22 54t-22 54t-54 22t-54 -22t-22 -54zM187 700q0 40 28 68t68 28t68 -28t28 -68
t-28 -68t-68 -28t-68 28t-28 68z" />
    <glyph glyph-name="ae" unicode="&#xe6;" horiz-adv-x="1054" 
d="M485 205v95h-2q-8 -14 -39.5 -20.5t-107.5 -10.5l-133 -6q-89 -4 -125 -37t-34 -90q0 -65 51 -98.5t133 -33.5q125 0 191 57t66 144zM1040 256h-535q0 -112 68 -182t194 -70q194 0 245 174h20q-7 -32 -22 -61.5t-43.5 -61.5t-80 -51.5t-119.5 -19.5q-197 0 -267 167
q-18 -57 -60.5 -95.5t-96 -55t-116.5 -16.5q-95 0 -149 39t-54 115q0 139 173 145l163 6q80 2 102.5 16.5t22.5 60.5v28q0 61 -52 87.5t-160 26.5q-109 0 -154.5 -34.5t-51.5 -116.5h-20q6 97 62 134t164 37q121 0 176.5 -32t55.5 -101v-29h2q28 76 95.5 119t164.5 43
q116 0 194.5 -73.5t78.5 -198.5zM505 276h515q-6 97 -73.5 164.5t-179.5 67.5q-118 0 -187 -66t-75 -166z" />
    <glyph glyph-name="ccedilla" unicode="&#xe7;" horiz-adv-x="648" 
d="M580 174h20q-21 -86 -88 -138q-62 -49 -172 -52l-42 -44l2 -2q24 8 50 8q37 0 59.5 -16t22.5 -45q0 -75 -104 -75q-63 0 -116 21l8 19q48 -20 108 -20q84 0 84 54q0 42 -62 42q-46 0 -73 -14l-17 12l57 60q-56 1 -105 20q-78 32 -121 98t-43 154q0 119 77 195.5t205 76.5
q113 0 182 -46t84 -130h-20q-37 156 -246 156q-124 0 -193 -72.5t-69 -179.5t69 -179.5t193 -72.5q100 0 164 43.5t86 126.5z" />
    <glyph glyph-name="egrave" unicode="&#xe8;" horiz-adv-x="593" 
d="M44 276h515q-6 97 -73.5 164.5t-179.5 67.5q-118 0 -187 -66t-75 -166zM579 256h-535q0 -107 69 -179.5t193 -72.5q194 0 245 174h20q-7 -32 -22 -61.5t-43.5 -61.5t-80 -51.5t-119.5 -19.5q-128 0 -205 76.5t-77 195.5t77 195.5t205 76.5q116 0 194.5 -73.5t78.5 -198.5
zM314 600l-168 139h32l164 -139h-28z" />
    <glyph glyph-name="eacute" unicode="&#xe9;" horiz-adv-x="593" 
d="M44 276h515q-6 97 -73.5 164.5t-179.5 67.5q-118 0 -187 -66t-75 -166zM579 256h-535q0 -107 69 -179.5t193 -72.5q194 0 245 174h20q-7 -32 -22 -61.5t-43.5 -61.5t-80 -51.5t-119.5 -19.5q-128 0 -205 76.5t-77 195.5t77 195.5t205 76.5q116 0 194.5 -73.5t78.5 -198.5
zM286 601l164 139h32l-168 -139h-28z" />
    <glyph glyph-name="ecircumflex" unicode="&#xea;" horiz-adv-x="593" 
d="M44 276h515q-6 97 -73.5 164.5t-179.5 67.5q-118 0 -187 -66t-75 -166zM579 256h-535q0 -107 69 -179.5t193 -72.5q194 0 245 174h20q-7 -32 -22 -61.5t-43.5 -61.5t-80 -51.5t-119.5 -19.5q-128 0 -205 76.5t-77 195.5t77 195.5t205 76.5q116 0 194.5 -73.5t78.5 -198.5
zM123 601l165 139h32l165 -139h-32l-149 125l-149 -125h-32z" />
    <glyph glyph-name="edieresis" unicode="&#xeb;" horiz-adv-x="593" 
d="M44 276h515q-6 97 -73.5 164.5t-179.5 67.5q-118 0 -187 -66t-75 -166zM579 256h-535q0 -107 69 -179.5t193 -72.5q194 0 245 174h20q-7 -32 -22 -61.5t-43.5 -61.5t-80 -51.5t-119.5 -19.5q-128 0 -205 76.5t-77 195.5t77 195.5t205 76.5q116 0 194.5 -73.5t78.5 -198.5
zM211 616h-20v109h20v-109zM417 616h-20v109h20v-109z" />
    <glyph glyph-name="igrave" unicode="&#xec;" 
d="M55 0v512h20v-512h-20zM50 600l-168 139h32l164 -139h-28z" />
    <glyph glyph-name="iacute" unicode="&#xed;" 
d="M55 0v512h20v-512h-20zM50 601l164 139h32l-168 -139h-28z" />
    <glyph glyph-name="icircumflex" unicode="&#xee;" 
d="M55 0v512h20v-512h-20zM-117 601l165 139h32l165 -139h-32l-149 125l-149 -125h-32z" />
    <glyph glyph-name="idieresis" unicode="&#xef;" 
d="M55 0v512h20v-512h-20zM-29 616h-20v109h20v-109zM177 616h-20v109h20v-109z" />
    <glyph glyph-name="eth" unicode="&#xf0;" horiz-adv-x="612" 
d="M227 606l-15 15l112 60q-66 34 -152 49l16 20q85 -18 160 -55l116 60l16 -15l-111 -59q219 -129 219 -415q0 -129 -76 -205.5t-206 -76.5q-128 0 -205 76.5t-77 195.5t77 195.5t205 76.5q181 0 250 -148l2 2q-43 198 -212 287zM44 256q0 -107 69 -179.5t193 -72.5
q123 0 192.5 72.5t69.5 179.5t-69.5 179.5t-192.5 72.5q-124 0 -193 -72.5t-69 -179.5z" />
    <glyph glyph-name="ntilde" unicode="&#xf1;" horiz-adv-x="593" 
d="M55 0v512h20v-115h2q57 131 231 131q70 0 118 -17.5t71 -49.5t32 -65t9 -74v-322h-20v322q0 37 -7.5 66t-28 58t-64.5 45.5t-110 16.5q-61 0 -106 -17t-68.5 -41t-37.5 -57t-17.5 -57t-3.5 -49v-287h-20zM153 630h-20q13 81 90 81q19 0 43 -11l75 -39q24 -11 39 -11
q21 0 38.5 14.5t22.5 46.5h20q-5 -39 -27 -60t-55 -21q-22 0 -45 12l-74 38q-19 11 -40 11q-23 0 -42 -15t-25 -46z" />
    <glyph glyph-name="ograve" unicode="&#xf2;" horiz-adv-x="612" 
d="M44 256q0 -107 69 -179.5t193 -72.5q123 0 192.5 72.5t69.5 179.5t-69.5 179.5t-192.5 72.5q-124 0 -193 -72.5t-69 -179.5zM24 256q0 119 77 195.5t205 76.5t205 -76.5t77 -195.5t-77 -195.5t-205 -76.5t-205 76.5t-77 195.5zM312 600l-168 139h32l164 -139h-28z" />
    <glyph glyph-name="oacute" unicode="&#xf3;" horiz-adv-x="612" 
d="M44 256q0 -107 69 -179.5t193 -72.5q123 0 192.5 72.5t69.5 179.5t-69.5 179.5t-192.5 72.5q-124 0 -193 -72.5t-69 -179.5zM24 256q0 119 77 195.5t205 76.5t205 -76.5t77 -195.5t-77 -195.5t-205 -76.5t-205 76.5t-77 195.5zM290 601l164 139h32l-168 -139h-28z" />
    <glyph glyph-name="ocircumflex" unicode="&#xf4;" horiz-adv-x="612" 
d="M44 256q0 -107 69 -179.5t193 -72.5q123 0 192.5 72.5t69.5 179.5t-69.5 179.5t-192.5 72.5q-124 0 -193 -72.5t-69 -179.5zM24 256q0 119 77 195.5t205 76.5t205 -76.5t77 -195.5t-77 -195.5t-205 -76.5t-205 76.5t-77 195.5zM126 601l165 139h32l165 -139h-32l-149 125
l-149 -125h-32z" />
    <glyph glyph-name="otilde" unicode="&#xf5;" horiz-adv-x="612" 
d="M44 256q0 -107 69 -179.5t193 -72.5q123 0 192.5 72.5t69.5 179.5t-69.5 179.5t-192.5 72.5q-124 0 -193 -72.5t-69 -179.5zM24 256q0 119 77 195.5t205 76.5t205 -76.5t77 -195.5t-77 -195.5t-205 -76.5t-205 76.5t-77 195.5zM163 630h-20q13 81 90 81q19 0 43 -11
l75 -39q24 -11 39 -11q21 0 38.5 14.5t22.5 46.5h20q-5 -39 -27 -60t-55 -21q-22 0 -45 12l-74 38q-19 11 -40 11q-23 0 -42 -15t-25 -46z" />
    <glyph glyph-name="odieresis" unicode="&#xf6;" horiz-adv-x="612" 
d="M44 256q0 -107 69 -179.5t193 -72.5q123 0 192.5 72.5t69.5 179.5t-69.5 179.5t-192.5 72.5q-124 0 -193 -72.5t-69 -179.5zM24 256q0 119 77 195.5t205 76.5t205 -76.5t77 -195.5t-77 -195.5t-205 -76.5t-205 76.5t-77 195.5zM213 616h-20v109h20v-109zM419 616h-20v109
h20v-109z" />
    <glyph glyph-name="divide" unicode="&#xf7;" horiz-adv-x="600" 
d="M261 40q0 17 11.5 28.5t28.5 11.5t28.5 -11.5t11.5 -28.5t-11.5 -28.5t-28.5 -11.5t-28.5 11.5t-11.5 28.5zM261 466q0 17 11.5 28.5t28.5 11.5t28.5 -11.5t11.5 -28.5t-11.5 -28.5t-28.5 -11.5t-28.5 11.5t-11.5 28.5zM553 243h-506v20h506v-20z" />
    <glyph glyph-name="oslash" unicode="&#xf8;" horiz-adv-x="612" 
d="M26 -3l71 69q-73 75 -73 190q0 119 77 195.5t205 76.5q118 0 197 -69l71 68l12 -12l-71 -68q73 -76 73 -191q0 -119 -77 -195.5t-205 -76.5q-122 0 -197 69l-71 -68zM501 433l-378 -366q71 -63 183 -63q123 0 192.5 72.5t69.5 179.5q0 108 -67 177zM111 79l378 366
q-71 63 -183 63q-124 0 -193 -72.5t-69 -179.5q0 -105 67 -177z" />
    <glyph glyph-name="ugrave" unicode="&#xf9;" horiz-adv-x="593" 
d="M538 512v-512h-20v115l-2 -2q-57 -129 -231 -129q-70 0 -118 17.5t-71 49.5t-32 65t-9 74v322h20v-322q0 -37 7.5 -66t28 -58t64.5 -45.5t110 -16.5q60 0 105 17.5t68.5 41.5t38 56t18 55t3.5 46v292h20zM303 600l-168 139h32l164 -139h-28z" />
    <glyph glyph-name="uacute" unicode="&#xfa;" horiz-adv-x="593" 
d="M538 512v-512h-20v115l-2 -2q-57 -129 -231 -129q-70 0 -118 17.5t-71 49.5t-32 65t-9 74v322h20v-322q0 -37 7.5 -66t28 -58t64.5 -45.5t110 -16.5q60 0 105 17.5t68.5 41.5t38 56t18 55t3.5 46v292h20zM279 601l164 139h32l-168 -139h-28z" />
    <glyph glyph-name="ucircumflex" unicode="&#xfb;" horiz-adv-x="593" 
d="M538 512v-512h-20v115l-2 -2q-57 -129 -231 -129q-70 0 -118 17.5t-71 49.5t-32 65t-9 74v322h20v-322q0 -37 7.5 -66t28 -58t64.5 -45.5t110 -16.5q60 0 105 17.5t68.5 41.5t38 56t18 55t3.5 46v292h20zM117 601l165 139h32l165 -139h-32l-149 125l-149 -125h-32z" />
    <glyph glyph-name="udieresis" unicode="&#xfc;" horiz-adv-x="593" 
d="M538 512v-512h-20v115l-2 -2q-57 -129 -231 -129q-70 0 -118 17.5t-71 49.5t-32 65t-9 74v322h20v-322q0 -37 7.5 -66t28 -58t64.5 -45.5t110 -16.5q60 0 105 17.5t68.5 41.5t38 56t18 55t3.5 46v292h20zM205 616h-20v109h20v-109zM411 616h-20v109h20v-109z" />
    <glyph glyph-name="yacute" unicode="&#xfd;" horiz-adv-x="500" 
d="M250 1l-263 511h26l249 -487l225 487h26l-272 -580q-32 -66 -59.5 -85.5t-84.5 -19.5h-40v20h46q43 0 67.5 16.5t45.5 63.5zM246 601l164 139h32l-168 -139h-28z" />
    <glyph glyph-name="thorn" unicode="&#xfe;" horiz-adv-x="612" 
d="M55 -202v916h20v-340h2q29 75 92.5 114.5t151.5 39.5q131 0 199 -78t68 -194q0 -117 -68 -194.5t-199 -77.5q-83 0 -148.5 37t-95.5 118h-2v-341h-20zM75 256q0 -107 62 -179.5t184 -72.5q123 0 185 72.5t62 179.5t-62 179.5t-185 72.5q-122 0 -184 -72.5t-62 -179.5z
" />
    <glyph glyph-name="ydieresis" unicode="&#xff;" horiz-adv-x="500" 
d="M250 1l-263 511h26l249 -487l225 487h26l-272 -580q-32 -66 -59.5 -85.5t-84.5 -19.5h-40v20h46q43 0 67.5 16.5t45.5 63.5zM170 616h-20v109h20v-109zM376 616h-20v109h20v-109z" />
    <glyph glyph-name="Amacron" unicode="&#x100;" horiz-adv-x="648" 
d="M324 694l-199 -438h398zM-17 0l328 714h26l328 -714h-26l-107 236h-416l-107 -236h-26zM512 829h-376v20h376v-20z" />
    <glyph glyph-name="amacron" unicode="&#x101;" horiz-adv-x="564" 
d="M485 205v95h-2q-15 -26 -134 -31l-156 -6q-149 -6 -149 -125q0 -66 51 -100t133 -34q125 0 191 57t66 144zM586 27v-20q-19 -7 -47 -7q-54 0 -54 51v61h-2q-59 -128 -256 -128q-94 0 -148.5 39.5t-54.5 115.5q0 66 43 103.5t124 40.5l169 6q80 2 102.5 16.5t22.5 60.5v28
q0 61 -52 87.5t-160 26.5q-109 0 -154.5 -34.5t-51.5 -116.5h-20q6 97 62 134t164 37q121 0 176.5 -32t55.5 -101v-332q0 -24 7 -33.5t27 -9.5q21 0 47 7zM479 659h-376v20h376v-20z" />
    <glyph glyph-name="Abreve" unicode="&#x102;" horiz-adv-x="648" 
d="M324 694l-199 -438h398zM-17 0l328 714h26l328 -714h-26l-107 236h-416l-107 -236h-26zM172 896h20q21 -91 132 -91t132 91h20q-20 -111 -152 -111t-152 111z" />
    <glyph glyph-name="abreve" unicode="&#x103;" horiz-adv-x="564" 
d="M485 205v95h-2q-15 -26 -134 -31l-156 -6q-149 -6 -149 -125q0 -66 51 -100t133 -34q125 0 191 57t66 144zM586 27v-20q-19 -7 -47 -7q-54 0 -54 51v61h-2q-59 -128 -256 -128q-94 0 -148.5 39.5t-54.5 115.5q0 66 43 103.5t124 40.5l169 6q80 2 102.5 16.5t22.5 60.5v28
q0 61 -52 87.5t-160 26.5q-109 0 -154.5 -34.5t-51.5 -116.5h-20q6 97 62 134t164 37q121 0 176.5 -32t55.5 -101v-332q0 -24 7 -33.5t27 -9.5q21 0 47 7zM137 726h20q21 -91 132 -91t132 91h20q-20 -111 -152 -111t-152 111z" />
    <glyph glyph-name="Aogonek" unicode="&#x104;" horiz-adv-x="648" 
d="M-17 0l328 714h26l328 -714q-117 -52 -117 -102q0 -33 23.5 -50.5t61.5 -17.5q41 0 105 20v-20q-48 -20 -105 -20q-49 0 -77 23t-28 65q0 34 31.5 61.5t79.5 40.5l-107 236h-416l-107 -236h-26zM324 694l-199 -438h398z" />
    <glyph glyph-name="aogonek" unicode="&#x105;" horiz-adv-x="564" 
d="M586 27v-20q-19 -7 -47 -7q-10 0 -15 1q-66 -30 -92 -53q-27 -26 -27 -50q0 -33 23.5 -50.5t61.5 -17.5q41 0 105 20v-20q-48 -20 -105 -20q-49 0 -77 23t-28 65q0 36 33 63q34 27 87 46q-1 1 -3 2t-3 2q-14 12 -14 40v61h-2q-59 -128 -256 -128q-94 0 -148.5 39.5
t-54.5 115.5q0 66 43 103.5t124 40.5l169 6q80 2 102.5 16.5t22.5 60.5v28q0 61 -52 87.5t-160 26.5q-109 0 -154.5 -34.5t-51.5 -116.5h-20q6 97 62 134t164 37q121 0 176.5 -32t55.5 -101v-332q0 -24 7 -33.5t27 -9.5q21 0 47 7zM485 205v95h-2q-15 -26 -134 -31l-156 -6
q-149 -6 -149 -125q0 -66 51 -100t133 -34q125 0 191 57t66 144z" />
    <glyph glyph-name="Cacute" unicode="&#x106;" horiz-adv-x="796" 
d="M736 271h20q-10 -91 -65.5 -158t-131.5 -98t-161 -31q-159 0 -264.5 100.5t-105.5 272.5t105.5 272.5t264.5 100.5q132 0 223 -55.5t118 -168.5h-20q-22 89 -102.5 146.5t-218.5 57.5q-148 0 -249 -94t-101 -259t101 -259t249 -94q139 0 234 79t104 188zM382 771l164 139
h32l-168 -139h-28z" />
    <glyph glyph-name="cacute" unicode="&#x107;" horiz-adv-x="648" 
d="M580 174h20q-22 -89 -89.5 -139.5t-180.5 -50.5q-128 0 -205 76.5t-77 195.5t77 195.5t205 76.5q113 0 182 -46t84 -130h-20q-37 156 -246 156q-124 0 -193 -72.5t-69 -179.5t69 -179.5t193 -72.5q100 0 164 43.5t86 126.5zM313 601l164 139h32l-168 -139h-28z" />
    <glyph glyph-name="Ccircumflex" unicode="&#x108;" horiz-adv-x="796" 
d="M736 271h20q-10 -91 -65.5 -158t-131.5 -98t-161 -31q-159 0 -264.5 100.5t-105.5 272.5t105.5 272.5t264.5 100.5q132 0 223 -55.5t118 -168.5h-20q-22 89 -102.5 146.5t-218.5 57.5q-148 0 -249 -94t-101 -259t101 -259t249 -94q139 0 234 79t104 188zM221 771l165 139
h32l165 -139h-32l-149 125l-149 -125h-32z" />
    <glyph glyph-name="ccircumflex" unicode="&#x109;" horiz-adv-x="648" 
d="M580 174h20q-22 -89 -89.5 -139.5t-180.5 -50.5q-128 0 -205 76.5t-77 195.5t77 195.5t205 76.5q113 0 182 -46t84 -130h-20q-37 156 -246 156q-124 0 -193 -72.5t-69 -179.5t69 -179.5t193 -72.5q100 0 164 43.5t86 126.5zM156 601l165 139h32l165 -139h-32l-149 125
l-149 -125h-32z" />
    <glyph glyph-name="Cdotaccent" unicode="&#x10a;" horiz-adv-x="796" 
d="M736 271h20q-10 -91 -65.5 -158t-131.5 -98t-161 -31q-159 0 -264.5 100.5t-105.5 272.5t105.5 272.5t264.5 100.5q132 0 223 -55.5t118 -168.5h-20q-22 89 -102.5 146.5t-218.5 57.5q-148 0 -249 -94t-101 -259t101 -259t249 -94q139 0 234 79t104 188zM411 786h-20v109
h20v-109z" />
    <glyph glyph-name="cdotaccent" unicode="&#x10b;" horiz-adv-x="648" 
d="M580 174h20q-22 -89 -89.5 -139.5t-180.5 -50.5q-128 0 -205 76.5t-77 195.5t77 195.5t205 76.5q113 0 182 -46t84 -130h-20q-37 156 -246 156q-124 0 -193 -72.5t-69 -179.5t69 -179.5t193 -72.5q100 0 164 43.5t86 126.5zM345 616h-20v109h20v-109z" />
    <glyph glyph-name="Ccaron" unicode="&#x10c;" horiz-adv-x="796" 
d="M736 271h20q-10 -91 -65.5 -158t-131.5 -98t-161 -31q-159 0 -264.5 100.5t-105.5 272.5t105.5 272.5t264.5 100.5q132 0 223 -55.5t118 -168.5h-20q-22 89 -102.5 146.5t-218.5 57.5q-148 0 -249 -94t-101 -259t101 -259t249 -94q139 0 234 79t104 188zM381 771
l-163 139h30l150 -125l150 125h30l-163 -139h-34z" />
    <glyph glyph-name="ccaron" unicode="&#x10d;" horiz-adv-x="648" 
d="M580 174h20q-22 -89 -89.5 -139.5t-180.5 -50.5q-128 0 -205 76.5t-77 195.5t77 195.5t205 76.5q113 0 182 -46t84 -130h-20q-37 156 -246 156q-124 0 -193 -72.5t-69 -179.5t69 -179.5t193 -72.5q100 0 164 43.5t86 126.5zM315 601l-163 139h30l150 -125l150 125h30
l-163 -139h-34z" />
    <glyph glyph-name="Dcaron" unicode="&#x10e;" horiz-adv-x="741" 
d="M55 0v714h348q144 0 221 -97t77 -260t-77 -260t-221 -97h-348zM75 694v-674h328q74 0 129.5 28t87 76.5t46.5 106.5t15 126t-15 126t-46.5 106.5t-87 76.5t-129.5 28h-328zM301 771l-163 139h30l150 -125l150 125h30l-163 -139h-34z" />
    <glyph glyph-name="dcaron" unicode="&#x10f;" horiz-adv-x="680" 
d="M537 0v138h-2q-29 -75 -92.5 -114.5t-151.5 -39.5q-131 0 -199 77.5t-68 194.5q0 116 68 194t199 78q83 0 148.5 -37t95.5 -118h2v341h20v-714h-20zM44 256q0 -107 62 -179.5t185 -72.5q122 0 184 72.5t62 179.5t-62 179.5t-184 72.5q-123 0 -185 -72.5t-62 -179.5z
M617 575l44 139h29l-55 -139h-18z" />
    <glyph glyph-name="Dcroat" unicode="&#x110;" horiz-adv-x="741" 
d="M75 362v-342h328q74 0 129.5 28t87 76.5t46.5 106.5t15 126t-15 126t-46.5 106.5t-87 76.5t-129.5 28h-328v-312h331v-20h-331zM55 0v362h-76v20h76v332h348q144 0 221 -97t77 -260t-77 -260t-221 -97h-348z" />
    <glyph glyph-name="dcroat" unicode="&#x111;" horiz-adv-x="652" 
d="M537 0v138h-2q-29 -75 -92.5 -114.5t-151.5 -39.5q-131 0 -199 77.5t-68 194.5q0 116 68 194t199 78q83 0 148.5 -37t95.5 -118h2v217h-220v20h220v104h20v-104h100v-20h-100v-590h-20zM44 256q0 -107 62 -179.5t185 -72.5q122 0 184 72.5t62 179.5t-62 179.5t-184 72.5
q-123 0 -185 -72.5t-62 -179.5z" />
    <glyph glyph-name="Emacron" unicode="&#x112;" horiz-adv-x="630" 
d="M55 0v714h556v-20h-536v-312h513v-20h-513v-342h542v-20h-562zM521 829h-376v20h376v-20z" />
    <glyph glyph-name="emacron" unicode="&#x113;" horiz-adv-x="593" 
d="M44 276h515q-6 97 -73.5 164.5t-179.5 67.5q-118 0 -187 -66t-75 -166zM579 256h-535q0 -107 69 -179.5t193 -72.5q194 0 245 174h20q-7 -32 -22 -61.5t-43.5 -61.5t-80 -51.5t-119.5 -19.5q-128 0 -205 76.5t-77 195.5t77 195.5t205 76.5q116 0 194.5 -73.5t78.5 -198.5
zM500 659h-376v20h376v-20z" />
    <glyph glyph-name="Ebreve" unicode="&#x114;" horiz-adv-x="630" 
d="M55 0v714h556v-20h-536v-312h513v-20h-513v-342h542v-20h-562zM181 896h20q21 -91 132 -91t132 91h20q-20 -111 -152 -111t-152 111z" />
    <glyph glyph-name="ebreve" unicode="&#x115;" horiz-adv-x="593" 
d="M44 276h515q-6 97 -73.5 164.5t-179.5 67.5q-118 0 -187 -66t-75 -166zM579 256h-535q0 -107 69 -179.5t193 -72.5q194 0 245 174h20q-7 -32 -22 -61.5t-43.5 -61.5t-80 -51.5t-119.5 -19.5q-128 0 -205 76.5t-77 195.5t77 195.5t205 76.5q116 0 194.5 -73.5t78.5 -198.5
zM158 726h20q21 -91 132 -91t132 91h20q-20 -111 -152 -111t-152 111z" />
    <glyph glyph-name="Edotaccent" unicode="&#x116;" horiz-adv-x="630" 
d="M55 0v714h556v-20h-536v-312h513v-20h-513v-342h542v-20h-562zM343 786h-20v109h20v-109z" />
    <glyph glyph-name="edotaccent" unicode="&#x117;" horiz-adv-x="593" 
d="M44 276h515q-6 97 -73.5 164.5t-179.5 67.5q-118 0 -187 -66t-75 -166zM579 256h-535q0 -107 69 -179.5t193 -72.5q194 0 245 174h20q-7 -32 -22 -61.5t-43.5 -61.5t-80 -51.5t-119.5 -19.5q-128 0 -205 76.5t-77 195.5t77 195.5t205 76.5q116 0 194.5 -73.5t78.5 -198.5
zM317 616h-20v109h20v-109z" />
    <glyph glyph-name="Eogonek" unicode="&#x118;" horiz-adv-x="630" 
d="M617 -150v-20q-48 -20 -105 -20q-49 0 -77 23t-28 65q0 35 32 62t80 40h-464v714h556v-20h-536v-312h513v-20h-513v-342h542v-20h-73q-117 -52 -117 -102q0 -33 23.5 -50.5t61.5 -17.5q41 0 105 20z" />
    <glyph glyph-name="eogonek" unicode="&#x119;" horiz-adv-x="593" 
d="M408 -150v-20q-48 -20 -105 -20q-49 0 -77 23t-28 65q0 36 33 63q15 13 38 25q-43 4 -81 18q-78 32 -121 98t-43 154q0 119 77 195.5t205 76.5q116 0 194.5 -73.5t78.5 -198.5h-535q0 -107 69 -179.5t193 -72.5q194 0 245 174h20q-7 -32 -22 -61.5t-43.5 -61.5t-80 -51.5
t-119.5 -19.5h-5q-35 -18 -56 -36q-27 -26 -27 -50q0 -33 23.5 -50.5t61.5 -17.5q41 0 105 20zM44 276h515q-6 97 -73.5 164.5t-179.5 67.5q-118 0 -187 -66t-75 -166z" />
    <glyph glyph-name="Ecaron" unicode="&#x11a;" horiz-adv-x="630" 
d="M55 0v714h556v-20h-536v-312h513v-20h-513v-342h542v-20h-562zM319 771l-163 139h30l150 -125l150 125h30l-163 -139h-34z" />
    <glyph glyph-name="ecaron" unicode="&#x11b;" horiz-adv-x="593" 
d="M44 276h515q-6 97 -73.5 164.5t-179.5 67.5q-118 0 -187 -66t-75 -166zM579 256h-535q0 -107 69 -179.5t193 -72.5q194 0 245 174h20q-7 -32 -22 -61.5t-43.5 -61.5t-80 -51.5t-119.5 -19.5q-128 0 -205 76.5t-77 195.5t77 195.5t205 76.5q116 0 194.5 -73.5t78.5 -198.5
zM288 601l-163 139h30l150 -125l150 125h30l-163 -139h-34z" />
    <glyph glyph-name="Gcircumflex" unicode="&#x11c;" horiz-adv-x="815" 
d="M424 315v20h336v-335h-20v191h-2q-36 -105 -127.5 -156t-212.5 -51q-159 0 -264.5 100.5t-105.5 272.5t105.5 272.5t264.5 100.5q297 0 344 -240h-20q-27 105 -100 162.5t-224 57.5q-148 0 -249 -94t-101 -259t102 -259t253 -94q68 0 127.5 18.5t107 55.5t75 98t27.5 139
h-316zM224 771l165 139h32l165 -139h-32l-149 125l-149 -125h-32z" />
    <glyph glyph-name="gcircumflex" unicode="&#x11d;" horiz-adv-x="630" 
d="M555 382v130h20v-496q0 -120 -68.5 -178t-194.5 -58q-47 0 -85 6t-78.5 22.5t-66 53t-31.5 90.5h20q6 -34 17 -58t36 -47t71.5 -35t113.5 -12q246 0 246 217v137h-2q-66 -144 -251 -144q-125 0 -199 68.5t-74 190.5t74 190.5t199 68.5q99 0 162.5 -38.5t88.5 -107.5h2z
M49 269q0 -115 67 -177t186 -62q121 0 187 63t66 176q0 116 -67 177.5t-186 61.5t-186 -62t-67 -177zM146 601l165 139h32l165 -139h-32l-149 125l-149 -125h-32z" />
    <glyph glyph-name="Gbreve" unicode="&#x11e;" horiz-adv-x="815" 
d="M424 315v20h336v-335h-20v191h-2q-36 -105 -127.5 -156t-212.5 -51q-159 0 -264.5 100.5t-105.5 272.5t105.5 272.5t264.5 100.5q297 0 344 -240h-20q-27 105 -100 162.5t-224 57.5q-148 0 -249 -94t-101 -259t102 -259t253 -94q68 0 127.5 18.5t107 55.5t75 98t27.5 139
h-316zM252 896h20q21 -91 132 -91t132 91h20q-20 -111 -152 -111t-152 111z" />
    <glyph glyph-name="gbreve" unicode="&#x11f;" horiz-adv-x="630" 
d="M555 382v130h20v-496q0 -120 -68.5 -178t-194.5 -58q-47 0 -85 6t-78.5 22.5t-66 53t-31.5 90.5h20q6 -34 17 -58t36 -47t71.5 -35t113.5 -12q246 0 246 217v137h-2q-66 -144 -251 -144q-125 0 -199 68.5t-74 190.5t74 190.5t199 68.5q99 0 162.5 -38.5t88.5 -107.5h2z
M49 269q0 -115 67 -177t186 -62q121 0 187 63t66 176q0 116 -67 177.5t-186 61.5t-186 -62t-67 -177zM173 726h20q21 -91 132 -91t132 91h20q-20 -111 -152 -111t-152 111z" />
    <glyph glyph-name="Gdotaccent" unicode="&#x120;" horiz-adv-x="815" 
d="M424 315v20h336v-335h-20v191h-2q-36 -105 -127.5 -156t-212.5 -51q-159 0 -264.5 100.5t-105.5 272.5t105.5 272.5t264.5 100.5q297 0 344 -240h-20q-27 105 -100 162.5t-224 57.5q-148 0 -249 -94t-101 -259t102 -259t253 -94q68 0 127.5 18.5t107 55.5t75 98t27.5 139
h-316zM416 786h-20v109h20v-109z" />
    <glyph glyph-name="gdotaccent" unicode="&#x121;" horiz-adv-x="630" 
d="M555 382v130h20v-496q0 -120 -68.5 -178t-194.5 -58q-47 0 -85 6t-78.5 22.5t-66 53t-31.5 90.5h20q6 -34 17 -58t36 -47t71.5 -35t113.5 -12q246 0 246 217v137h-2q-66 -144 -251 -144q-125 0 -199 68.5t-74 190.5t74 190.5t199 68.5q99 0 162.5 -38.5t88.5 -107.5h2z
M49 269q0 -115 67 -177t186 -62q121 0 187 63t66 176q0 116 -67 177.5t-186 61.5t-186 -62t-67 -177zM319 616h-20v109h20v-109z" />
    <glyph glyph-name="Gcommaaccent" unicode="&#x122;" horiz-adv-x="815" 
d="M424 315v20h336v-335h-20v191h-2q-36 -105 -127.5 -156t-212.5 -51q-159 0 -264.5 100.5t-105.5 272.5t105.5 272.5t264.5 100.5q297 0 344 -240h-20q-27 105 -100 162.5t-224 57.5q-148 0 -249 -94t-101 -259t102 -259t253 -94q68 0 127.5 18.5t107 55.5t75 98t27.5 139
h-316zM388 -130v80h20v-80q0 -80 -48 -90v18q28 14 28 72z" />
    <glyph glyph-name="gcommaaccent" unicode="&#x123;" horiz-adv-x="630" 
d="M555 382v130h20v-496q0 -120 -68.5 -178t-194.5 -58q-47 0 -85 6t-78.5 22.5t-66 53t-31.5 90.5h20q6 -34 17 -58t36 -47t71.5 -35t113.5 -12q246 0 246 217v137h-2q-66 -144 -251 -144q-125 0 -199 68.5t-74 190.5t74 190.5t199 68.5q99 0 162.5 -38.5t88.5 -107.5h2z
M49 269q0 -115 67 -177t186 -62q121 0 187 63t66 176q0 116 -67 177.5t-186 61.5t-186 -62t-67 -177zM315 687v-79h-20v79q0 46 12 66t36 25v-18q-28 -14 -28 -73z" />
    <glyph glyph-name="Hcircumflex" unicode="&#x124;" horiz-adv-x="722" 
d="M55 0v714h20v-332h572v332h20v-714h-20v362h-572v-362h-20zM181 771l165 139h32l165 -139h-32l-149 125l-149 -125h-32z" />
    <glyph glyph-name="hcircumflex" unicode="&#x125;" horiz-adv-x="593" 
d="M55 0v714h20v-317h2q57 131 231 131q70 0 118 -17.5t71 -49.5t32 -65t9 -74v-322h-20v322q0 37 -7.5 66t-28 58t-64.5 45.5t-110 16.5q-61 0 -106 -17t-68.5 -41t-37.5 -57t-17.5 -57t-3.5 -49v-287h-20zM118 771l165 139h32l165 -139h-32l-149 125l-149 -125h-32z" />
    <glyph glyph-name="Hbar" unicode="&#x126;" horiz-adv-x="722" 
d="M55 0v714h20v-202h572v202h20v-714h-20v362h-572v-362h-20zM75 382h572v110h-572v-110z" />
    <glyph glyph-name="hbar" unicode="&#x127;" horiz-adv-x="633" 
d="M95 610v104h20v-104h206v-20h-206v-193h2q57 131 231 131q70 0 118 -17.5t71 -49.5t32 -65t9 -74v-322h-20v322q0 37 -7.5 66t-28 58t-64.5 45.5t-110 16.5q-61 0 -106 -17t-68.5 -41t-37.5 -57t-17.5 -57t-3.5 -49v-287h-20v590h-100v20h100z" />
    <glyph glyph-name="Itilde" unicode="&#x128;" 
d="M55 0v714h20v-714h-20zM-78 800h-20q13 81 90 81q19 0 43 -11l75 -39q24 -11 39 -11q21 0 38.5 14.5t22.5 46.5h20q-5 -39 -27 -60t-55 -21q-22 0 -45 12l-74 38q-19 11 -40 11q-23 0 -42 -15t-25 -46z" />
    <glyph glyph-name="itilde" unicode="&#x129;" 
d="M55 0v512h20v-512h-20zM-78 630h-20q13 81 90 81q19 0 43 -11l75 -39q24 -11 39 -11q21 0 38.5 14.5t22.5 46.5h20q-5 -39 -27 -60t-55 -21q-22 0 -45 12l-74 38q-19 11 -40 11q-23 0 -42 -15t-25 -46z" />
    <glyph glyph-name="Imacron" unicode="&#x12a;" 
d="M55 0v714h20v-714h-20zM252 829h-376v20h376v-20z" />
    <glyph glyph-name="imacron" unicode="&#x12b;" 
d="M55 0v512h20v-512h-20zM253 659h-376v20h376v-20z" />
    <glyph glyph-name="Iogonek" unicode="&#x12e;" 
d="M133 -150v-20q-40 -20 -84 -20q-39 0 -61.5 23t-22.5 65q0 35 25.5 62t64.5 40v714h20v-714q-94 -51 -94 -102q0 -33 19 -50.5t49 -17.5q33 0 84 20z" />
    <glyph glyph-name="iogonek" unicode="&#x12f;" 
d="M55 0v512h20v-512q-100 -52 -100 -102q0 -32 21 -50t53 -18q38 0 90 20v-20q-45 -20 -90 -20q-43 0 -67.5 23t-24.5 64q0 35 28 62.5t70 40.5zM55 605v109h20v-109h-20z" />
    <glyph glyph-name="Idotaccent" unicode="&#x130;" 
d="M55 0v714h20v-714h-20zM75 786h-20v109h20v-109z" />
    <glyph glyph-name="dotlessi" unicode="&#x131;" 
d="M55 0v512h20v-512h-20z" />
    <glyph glyph-name="Jcircumflex" unicode="&#x134;" horiz-adv-x="519" 
d="M444 714h20v-536q0 -35 -11 -67t-35 -61.5t-69.5 -47.5t-106.5 -18q-220 0 -220 238h20q0 -218 198 -218q59 0 101.5 17t63.5 45t30 55.5t9 56.5v536zM269 771l165 139h32l165 -139h-32l-149 125l-149 -125h-32z" />
    <glyph glyph-name="jcircumflex" unicode="&#x135;" 
d="M55 -74v586h20v-603q0 -58 -28.5 -84.5t-93.5 -26.5q-11 0 -31.5 1.5t-29.5 1.5v20q20 -3 67 -3q56 0 76 24.5t20 83.5zM-120 601l165 139h32l165 -139h-32l-149 125l-149 -125h-32z" />
    <glyph glyph-name="Kcommaaccent" unicode="&#x136;" horiz-adv-x="685" 
d="M55 0v714h20v-435l567 435h35l-390 -298l421 -416h-31l-407 402l-195 -149v-253h-20zM342 -130v80h20v-80q0 -80 -48 -90v18q28 14 28 72z" />
    <glyph glyph-name="kcommaaccent" unicode="&#x137;" horiz-adv-x="537" 
d="M55 0v714h20v-500l408 298h35l-268 -196l288 -316h-26l-278 305l-159 -117v-188h-20zM272 -130v80h20v-80q0 -80 -48 -90v18q28 14 28 72z" />
    <glyph glyph-name="Lacute" unicode="&#x139;" horiz-adv-x="537" 
d="M55 0v714h20v-694h481v-20h-501zM52 771l164 139h32l-168 -139h-28z" />
    <glyph glyph-name="lacute" unicode="&#x13a;" 
d="M55 0v714h20v-714h-20zM51 771l164 139h32l-168 -139h-28z" />
    <glyph glyph-name="Lcommaaccent" unicode="&#x13b;" horiz-adv-x="537" 
d="M55 0v714h20v-694h481v-20h-501zM286 -130v80h20v-80q0 -80 -48 -90v18q28 14 28 72z" />
    <glyph glyph-name="lcommaaccent" unicode="&#x13c;" 
d="M55 0v714h20v-714h-20zM55 -130v80h20v-80q0 -80 -48 -90v18q28 14 28 72z" />
    <glyph glyph-name="Lcaron" unicode="&#x13d;" horiz-adv-x="537" 
d="M55 0v714h20v-694h481v-20h-501zM212 575l44 139h29l-55 -139h-18z" />
    <glyph glyph-name="lcaron" unicode="&#x13e;" horiz-adv-x="198" 
d="M55 0v714h20v-714h-20zM135 575l44 139h29l-55 -139h-18z" />
    <glyph glyph-name="Ldot" unicode="&#x13f;" horiz-adv-x="537" 
d="M55 0v714h20v-694h481v-20h-501zM265 403h-20v109h20v-109z" />
    <glyph glyph-name="ldot" unicode="&#x140;" horiz-adv-x="241" 
d="M55 0v714h20v-714h-20zM181 403h-20v109h20v-109z" />
    <glyph glyph-name="Lslash" unicode="&#x141;" horiz-adv-x="537" 
d="M55 0v281l-119 -78v20l119 78v413h20v-400l279 183v-20l-279 -183v-274h481v-20h-501z" />
    <glyph glyph-name="lslash" unicode="&#x142;" 
d="M55 0v321l-80 -64v20l80 64v373h20v-357l80 64v-20l-80 -64v-337h-20z" />
    <glyph glyph-name="Nacute" unicode="&#x143;" horiz-adv-x="722" 
d="M55 0v714h26l564 -688h2v688h20v-714h-26l-564 688h-2v-688h-20zM342 771l164 139h32l-168 -139h-28z" />
    <glyph glyph-name="nacute" unicode="&#x144;" horiz-adv-x="593" 
d="M55 0v512h20v-115h2q57 131 231 131q70 0 118 -17.5t71 -49.5t32 -65t9 -74v-322h-20v322q0 37 -7.5 66t-28 58t-64.5 45.5t-110 16.5q-61 0 -106 -17t-68.5 -41t-37.5 -57t-17.5 -57t-3.5 -49v-287h-20zM282 601l164 139h32l-168 -139h-28z" />
    <glyph glyph-name="Ncommaaccent" unicode="&#x145;" horiz-adv-x="722" 
d="M55 0v714h26l564 -688h2v688h20v-714h-26l-564 688h-2v-688h-20zM347 -130v80h20v-80q0 -80 -48 -90v18q28 14 28 72z" />
    <glyph glyph-name="ncommaaccent" unicode="&#x146;" horiz-adv-x="593" 
d="M55 0v512h20v-115h2q57 131 231 131q70 0 118 -17.5t71 -49.5t32 -65t9 -74v-322h-20v322q0 37 -7.5 66t-28 58t-64.5 45.5t-110 16.5q-61 0 -106 -17t-68.5 -41t-37.5 -57t-17.5 -57t-3.5 -49v-287h-20zM283 -130v80h20v-80q0 -80 -48 -90v18q28 14 28 72z" />
    <glyph glyph-name="Ncaron" unicode="&#x147;" horiz-adv-x="722" 
d="M55 0v714h26l564 -688h2v688h20v-714h-26l-564 688h-2v-688h-20zM342 771l-163 139h30l150 -125l150 125h30l-163 -139h-34z" />
    <glyph glyph-name="ncaron" unicode="&#x148;" horiz-adv-x="593" 
d="M55 0v512h20v-115h2q57 131 231 131q70 0 118 -17.5t71 -49.5t32 -65t9 -74v-322h-20v322q0 37 -7.5 66t-28 58t-64.5 45.5t-110 16.5q-61 0 -106 -17t-68.5 -41t-37.5 -57t-17.5 -57t-3.5 -49v-287h-20zM283 601l-163 139h30l150 -125l150 125h30l-163 -139h-34z" />
    <glyph glyph-name="Omacron" unicode="&#x14c;" horiz-adv-x="796" 
d="M48 357q0 -165 101 -259t249 -94t249 94t101 259t-101 259t-249 94t-249 -94t-101 -259zM28 357q0 172 105.5 272.5t264.5 100.5t264.5 -100.5t105.5 -272.5t-105.5 -272.5t-264.5 -100.5t-264.5 100.5t-105.5 272.5zM587 829h-376v20h376v-20z" />
    <glyph glyph-name="omacron" unicode="&#x14d;" horiz-adv-x="612" 
d="M44 256q0 -107 69 -179.5t193 -72.5q123 0 192.5 72.5t69.5 179.5t-69.5 179.5t-192.5 72.5q-124 0 -193 -72.5t-69 -179.5zM24 256q0 119 77 195.5t205 76.5t205 -76.5t77 -195.5t-77 -195.5t-205 -76.5t-205 76.5t-77 195.5zM494 659h-376v20h376v-20z" />
    <glyph glyph-name="Obreve" unicode="&#x14e;" horiz-adv-x="796" 
d="M48 357q0 -165 101 -259t249 -94t249 94t101 259t-101 259t-249 94t-249 -94t-101 -259zM28 357q0 172 105.5 272.5t264.5 100.5t264.5 -100.5t105.5 -272.5t-105.5 -272.5t-264.5 -100.5t-264.5 100.5t-105.5 272.5zM245 896h20q21 -91 132 -91t132 91h20
q-20 -111 -152 -111t-152 111z" />
    <glyph glyph-name="obreve" unicode="&#x14f;" horiz-adv-x="612" 
d="M44 256q0 -107 69 -179.5t193 -72.5q123 0 192.5 72.5t69.5 179.5t-69.5 179.5t-192.5 72.5q-124 0 -193 -72.5t-69 -179.5zM24 256q0 119 77 195.5t205 76.5t205 -76.5t77 -195.5t-77 -195.5t-205 -76.5t-205 76.5t-77 195.5zM155 726h20q21 -91 132 -91t132 91h20
q-20 -111 -152 -111t-152 111z" />
    <glyph glyph-name="Ohungarumlaut" unicode="&#x150;" horiz-adv-x="796" 
d="M48 357q0 -165 101 -259t249 -94t249 94t101 259t-101 259t-249 94t-249 -94t-101 -259zM28 357q0 172 105.5 272.5t264.5 100.5t264.5 -100.5t105.5 -272.5t-105.5 -272.5t-264.5 -100.5t-264.5 100.5t-105.5 272.5zM480 771l164 139h32l-168 -139h-28zM280 771l164 139
h32l-168 -139h-28z" />
    <glyph glyph-name="ohungarumlaut" unicode="&#x151;" horiz-adv-x="612" 
d="M44 256q0 -107 69 -179.5t193 -72.5q123 0 192.5 72.5t69.5 179.5t-69.5 179.5t-192.5 72.5q-124 0 -193 -72.5t-69 -179.5zM24 256q0 119 77 195.5t205 76.5t205 -76.5t77 -195.5t-77 -195.5t-205 -76.5t-205 76.5t-77 195.5zM380 601l164 139h32l-168 -139h-28z
M180 601l164 139h32l-168 -139h-28z" />
    <glyph glyph-name="OE" unicode="&#x152;" horiz-adv-x="1167" 
d="M647 109v496q0 12 -16 25q-97 80 -233 80q-148 0 -249 -94t-101 -259t101 -259t249 -94q133 0 237 82q12 9 12 23zM1120 362h-453v-342h492v-20h-512v71q-100 -87 -249 -87q-159 0 -264.5 100.5t-105.5 272.5t105.5 272.5t264.5 100.5q148 0 249 -87v71h512v-20h-492
v-312h453v-20z" />
    <glyph glyph-name="oe" unicode="&#x153;" horiz-adv-x="1054" 
d="M44 256q0 -116 69 -184t170 -68t170 68t69 184t-69 184t-170 68t-170 -68t-69 -184zM1040 256h-498q0 -69 20.5 -119.5t56 -78.5t76 -41t86.5 -13q105 0 162.5 48.5t71.5 119.5h20q-17 -93 -86.5 -140.5t-164.5 -47.5q-94 0 -162 46.5t-89 138.5h-2q-28 -94 -96.5 -139.5
t-151.5 -45.5q-111 0 -185 73.5t-74 198.5t74 198.5t185 73.5q92 0 160 -52t88 -141h2q19 88 82.5 140.5t166.5 52.5q73 0 126 -24t80.5 -65t39.5 -86t12 -97zM542 276h478q-1 40 -12.5 76.5t-36.5 73.5t-74 59.5t-117 22.5q-97 0 -162 -56.5t-76 -175.5z" />
    <glyph glyph-name="Racute" unicode="&#x154;" horiz-adv-x="685" 
d="M75 694v-338h340q102 0 156 47.5t54 115.5q0 99 -45.5 137t-133.5 38h-371zM55 0v714h393q105 0 151 -48.5t46 -146.5q0 -38 -15.5 -73.5t-56 -64t-98.5 -32.5l-1 -2q82 -1 120 -38t38 -112q0 -163 16 -197h-20q-16 32 -16 178q0 45 -7 72t-29 48t-63 29.5t-108 8.5h-330
v-336h-20zM305 771l164 139h32l-168 -139h-28z" />
    <glyph glyph-name="racute" unicode="&#x155;" horiz-adv-x="315" 
d="M55 0v512h20v-138h2q21 74 79.5 114t131.5 40q10 0 43 -3v-20q-15 3 -44 3q-92 0 -152 -67t-60 -188v-253h-20zM50 601l164 139h32l-168 -139h-28z" />
    <glyph glyph-name="Rcommaaccent" unicode="&#x156;" horiz-adv-x="685" 
d="M75 694v-338h340q102 0 156 47.5t54 115.5q0 99 -45.5 137t-133.5 38h-371zM55 0v714h393q105 0 151 -48.5t46 -146.5q0 -38 -15.5 -73.5t-56 -64t-98.5 -32.5l-1 -2q82 -1 120 -38t38 -112q0 -163 16 -197h-20q-16 32 -16 178q0 45 -7 72t-29 48t-63 29.5t-108 8.5h-330
v-336h-20zM329 -130v80h20v-80q0 -80 -48 -90v18q28 14 28 72z" />
    <glyph glyph-name="rcommaaccent" unicode="&#x157;" horiz-adv-x="315" 
d="M55 0v512h20v-138h2q21 74 79.5 114t131.5 40q10 0 43 -3v-20q-15 3 -44 3q-92 0 -152 -67t-60 -188v-253h-20zM56 -130v80h20v-80q0 -80 -48 -90v18q28 14 28 72z" />
    <glyph glyph-name="Rcaron" unicode="&#x158;" horiz-adv-x="685" 
d="M75 694v-338h340q102 0 156 47.5t54 115.5q0 99 -45.5 137t-133.5 38h-371zM55 0v714h393q105 0 151 -48.5t46 -146.5q0 -38 -15.5 -73.5t-56 -64t-98.5 -32.5l-1 -2q82 -1 120 -38t38 -112q0 -163 16 -197h-20q-16 32 -16 178q0 45 -7 72t-29 48t-63 29.5t-108 8.5h-330
v-336h-20zM306 771l-163 139h30l150 -125l150 125h30l-163 -139h-34z" />
    <glyph glyph-name="rcaron" unicode="&#x159;" horiz-adv-x="315" 
d="M55 0v512h20v-138h2q21 74 79.5 114t131.5 40q10 0 43 -3v-20q-15 3 -44 3q-92 0 -152 -67t-60 -188v-253h-20zM161 601l-163 139h30l150 -125l150 125h30l-163 -139h-34z" />
    <glyph glyph-name="Sacute" unicode="&#x15a;" horiz-adv-x="667" 
d="M616 514h-20q-6 96 -68.5 146t-200.5 50q-249 0 -249 -165q0 -55 33.5 -90t119.5 -54l240 -52q163 -35 163 -164q0 -27 -5.5 -52t-24 -53t-48.5 -48.5t-83 -34t-123 -13.5q-81 0 -141 17t-92.5 41.5t-52 61t-25 66t-6.5 65.5h20q1 -66 23.5 -112t64 -71.5t93.5 -36.5
t120 -11q76 0 129.5 16t80.5 44t38.5 57t11.5 62q0 60 -36.5 95.5t-117.5 52.5l-226 48q-92 19 -134 57.5t-42 110.5q0 183 264 183q85 0 144.5 -17.5t89.5 -50.5t43.5 -67.5t16.5 -80.5zM321 771l164 139h32l-168 -139h-28z" />
    <glyph glyph-name="sacute" unicode="&#x15b;" horiz-adv-x="500" 
d="M11 160h20q5 -40 15 -66t34 -48t68 -32t111 -10q210 0 210 126q0 57 -32.5 81t-115.5 34l-155 19q-137 18 -137 127q0 137 223 137q108 0 159.5 -37t55.5 -129h-20q-4 84 -50.5 115t-150.5 31q-197 0 -197 -117q0 -48 29 -73.5t92 -33.5l155 -19q92 -12 128 -42t36 -94
q0 -145 -230 -145q-62 0 -106.5 10t-69.5 24.5t-41 40t-21.5 47t-9.5 54.5zM235 601l164 139h32l-168 -139h-28z" />
    <glyph glyph-name="Scircumflex" unicode="&#x15c;" horiz-adv-x="667" 
d="M616 514h-20q-6 96 -68.5 146t-200.5 50q-249 0 -249 -165q0 -55 33.5 -90t119.5 -54l240 -52q163 -35 163 -164q0 -27 -5.5 -52t-24 -53t-48.5 -48.5t-83 -34t-123 -13.5q-81 0 -141 17t-92.5 41.5t-52 61t-25 66t-6.5 65.5h20q1 -66 23.5 -112t64 -71.5t93.5 -36.5
t120 -11q76 0 129.5 16t80.5 44t38.5 57t11.5 62q0 60 -36.5 95.5t-117.5 52.5l-226 48q-92 19 -134 57.5t-42 110.5q0 183 264 183q85 0 144.5 -17.5t89.5 -50.5t43.5 -67.5t16.5 -80.5zM161 771l165 139h32l165 -139h-32l-149 125l-149 -125h-32z" />
    <glyph glyph-name="scircumflex" unicode="&#x15d;" horiz-adv-x="500" 
d="M11 160h20q5 -40 15 -66t34 -48t68 -32t111 -10q210 0 210 126q0 57 -32.5 81t-115.5 34l-155 19q-137 18 -137 127q0 137 223 137q108 0 159.5 -37t55.5 -129h-20q-4 84 -50.5 115t-150.5 31q-197 0 -197 -117q0 -48 29 -73.5t92 -33.5l155 -19q92 -12 128 -42t36 -94
q0 -145 -230 -145q-62 0 -106.5 10t-69.5 24.5t-41 40t-21.5 47t-9.5 54.5zM78 601l165 139h32l165 -139h-32l-149 125l-149 -125h-32z" />
    <glyph glyph-name="Scedilla" unicode="&#x15e;" horiz-adv-x="667" 
d="M616 514h-20q-6 96 -68.5 146t-200.5 50q-249 0 -249 -165q0 -55 33.5 -90t119.5 -54l240 -52q163 -35 163 -164q0 -27 -5.5 -52t-24 -53t-48.5 -48.5t-83 -34t-123 -13.5h-16l-42 -44l2 -2q24 8 50 8q37 0 59.5 -16t22.5 -45q0 -75 -104 -75q-63 0 -116 21l8 19
q48 -20 108 -20q84 0 84 54q0 42 -62 42q-46 0 -73 -14l-17 12l58 61q-80 5 -131 24q-146 54 -148 226h20q1 -66 23.5 -112t64 -71.5t93.5 -36.5t120 -11q76 0 129.5 16t80.5 44t38.5 57t11.5 62q0 60 -36.5 95.5t-117.5 52.5l-226 48q-92 19 -134 57.5t-42 110.5
q0 183 264 183q85 0 144.5 -17.5t89.5 -50.5t43.5 -67.5t16.5 -80.5z" />
    <glyph glyph-name="Scedilla" unicode="&#xf6c1;" horiz-adv-x="667" 
d="M616 514h-20q-6 96 -68.5 146t-200.5 50q-249 0 -249 -165q0 -55 33.5 -90t119.5 -54l240 -52q163 -35 163 -164q0 -27 -5.5 -52t-24 -53t-48.5 -48.5t-83 -34t-123 -13.5h-16l-42 -44l2 -2q24 8 50 8q37 0 59.5 -16t22.5 -45q0 -75 -104 -75q-63 0 -116 21l8 19
q48 -20 108 -20q84 0 84 54q0 42 -62 42q-46 0 -73 -14l-17 12l58 61q-80 5 -131 24q-146 54 -148 226h20q1 -66 23.5 -112t64 -71.5t93.5 -36.5t120 -11q76 0 129.5 16t80.5 44t38.5 57t11.5 62q0 60 -36.5 95.5t-117.5 52.5l-226 48q-92 19 -134 57.5t-42 110.5
q0 183 264 183q85 0 144.5 -17.5t89.5 -50.5t43.5 -67.5t16.5 -80.5z" />
    <glyph glyph-name="scedilla" unicode="&#x15f;" horiz-adv-x="500" 
d="M11 160h20q5 -40 15 -66t34 -48t68 -32t111 -10q210 0 210 126q0 57 -32.5 81t-115.5 34l-155 19q-137 18 -137 127q0 137 223 137q108 0 159.5 -37t55.5 -129h-20q-4 84 -50.5 115t-150.5 31q-197 0 -197 -117q0 -48 29 -73.5t92 -33.5l155 -19q92 -12 128 -42t36 -94
q0 -145 -230 -145h-2l-42 -44l2 -2q24 8 50 8q37 0 59.5 -16t22.5 -45q0 -75 -104 -75q-63 0 -116 21l8 19q48 -20 108 -20q84 0 84 54q0 42 -62 42q-46 0 -73 -14l-17 12l58 60q-62 3 -103 15q-66 20 -90 58.5t-31 102.5z" />
    <glyph glyph-name="scedilla" unicode="&#xf6c2;" horiz-adv-x="500" 
d="M11 160h20q5 -40 15 -66t34 -48t68 -32t111 -10q210 0 210 126q0 57 -32.5 81t-115.5 34l-155 19q-137 18 -137 127q0 137 223 137q108 0 159.5 -37t55.5 -129h-20q-4 84 -50.5 115t-150.5 31q-197 0 -197 -117q0 -48 29 -73.5t92 -33.5l155 -19q92 -12 128 -42t36 -94
q0 -145 -230 -145h-2l-42 -44l2 -2q24 8 50 8q37 0 59.5 -16t22.5 -45q0 -75 -104 -75q-63 0 -116 21l8 19q48 -20 108 -20q84 0 84 54q0 42 -62 42q-46 0 -73 -14l-17 12l58 60q-62 3 -103 15q-66 20 -90 58.5t-31 102.5z" />
    <glyph glyph-name="Scaron" unicode="&#x160;" horiz-adv-x="667" 
d="M616 514h-20q-6 96 -68.5 146t-200.5 50q-249 0 -249 -165q0 -55 33.5 -90t119.5 -54l240 -52q163 -35 163 -164q0 -27 -5.5 -52t-24 -53t-48.5 -48.5t-83 -34t-123 -13.5q-81 0 -141 17t-92.5 41.5t-52 61t-25 66t-6.5 65.5h20q1 -66 23.5 -112t64 -71.5t93.5 -36.5
t120 -11q76 0 129.5 16t80.5 44t38.5 57t11.5 62q0 60 -36.5 95.5t-117.5 52.5l-226 48q-92 19 -134 57.5t-42 110.5q0 183 264 183q85 0 144.5 -17.5t89.5 -50.5t43.5 -67.5t16.5 -80.5zM324 771l-163 139h30l150 -125l150 125h30l-163 -139h-34z" />
    <glyph glyph-name="scaron" unicode="&#x161;" horiz-adv-x="500" 
d="M11 160h20q5 -40 15 -66t34 -48t68 -32t111 -10q210 0 210 126q0 57 -32.5 81t-115.5 34l-155 19q-137 18 -137 127q0 137 223 137q108 0 159.5 -37t55.5 -129h-20q-4 84 -50.5 115t-150.5 31q-197 0 -197 -117q0 -48 29 -73.5t92 -33.5l155 -19q92 -12 128 -42t36 -94
q0 -145 -230 -145q-62 0 -106.5 10t-69.5 24.5t-41 40t-21.5 47t-9.5 54.5zM242 601l-163 139h30l150 -125l150 125h30l-163 -139h-34z" />
    <glyph glyph-name="Tcommaaccent" unicode="&#x162;" horiz-adv-x="574" 
d="M277 0v694h-298v20h616v-20h-298v-694h-20zM277 -130v80h20v-80q0 -80 -48 -90v18q28 14 28 72z" />
    <glyph glyph-name="tcommaaccent" unicode="&#x163;" horiz-adv-x="296" 
d="M123 96v396h-122v20h122v176h20v-176h149v-20h-149v-397q0 -46 19 -63.5t72 -17.5q32 0 72 5v-20q-45 -5 -72 -5q-65 0 -88 23.5t-23 78.5zM186 -130v80h20v-80q0 -80 -48 -90v18q28 14 28 72z" />
    <glyph glyph-name="Tcaron" unicode="&#x164;" horiz-adv-x="574" 
d="M277 0v694h-298v20h616v-20h-298v-694h-20zM270 771l-163 139h30l150 -125l150 125h30l-163 -139h-34z" />
    <glyph glyph-name="tcaron" unicode="&#x165;" horiz-adv-x="327" 
d="M264 575l44 139h29l-55 -139h-18zM123 96v396h-122v20h122v176h20v-176h149v-20h-149v-397q0 -46 19 -63.5t72 -17.5q32 0 72 5v-20q-45 -5 -72 -5q-65 0 -88 23.5t-23 78.5z" />
    <glyph glyph-name="Tbar" unicode="&#x166;" horiz-adv-x="574" 
d="M277 446v248h-298v20h616v-20h-298v-248h205v-20h-205v-426h-20v426h-201v20h201z" />
    <glyph glyph-name="tbar" unicode="&#x167;" horiz-adv-x="296" 
d="M123 334v158h-122v20h122v176h20v-176h149v-20h-149v-158h159v-20h-159v-219q0 -46 19 -63.5t72 -17.5q32 0 72 5v-20q-45 -5 -72 -5q-65 0 -88 23.5t-23 78.5v218h-132v20h132z" />
    <glyph glyph-name="Utilde" unicode="&#x168;" horiz-adv-x="722" 
d="M50 261v453h20v-455q0 -255 291 -255t291 255v455h20v-453q0 -277 -311 -277t-311 277zM217 800h-20q13 81 90 81q19 0 43 -11l75 -39q24 -11 39 -11q21 0 38.5 14.5t22.5 46.5h20q-5 -39 -27 -60t-55 -21q-22 0 -45 12l-74 38q-19 11 -40 11q-23 0 -42 -15t-25 -46z" />
    <glyph glyph-name="utilde" unicode="&#x169;" horiz-adv-x="593" 
d="M538 512v-512h-20v115l-2 -2q-57 -129 -231 -129q-70 0 -118 17.5t-71 49.5t-32 65t-9 74v322h20v-322q0 -37 7.5 -66t28 -58t64.5 -45.5t110 -16.5q60 0 105 17.5t68.5 41.5t38 56t18 55t3.5 46v292h20zM154 630h-20q13 81 90 81q19 0 43 -11l75 -39q24 -11 39 -11
q21 0 38.5 14.5t22.5 46.5h20q-5 -39 -27 -60t-55 -21q-22 0 -45 12l-74 38q-19 11 -40 11q-23 0 -42 -15t-25 -46z" />
    <glyph glyph-name="Umacron" unicode="&#x16a;" horiz-adv-x="722" 
d="M50 261v453h20v-455q0 -255 291 -255t291 255v455h20v-453q0 -277 -311 -277t-311 277zM549 829h-376v20h376v-20z" />
    <glyph glyph-name="umacron" unicode="&#x16b;" horiz-adv-x="593" 
d="M538 512v-512h-20v115l-2 -2q-57 -129 -231 -129q-70 0 -118 17.5t-71 49.5t-32 65t-9 74v322h20v-322q0 -37 7.5 -66t28 -58t64.5 -45.5t110 -16.5q60 0 105 17.5t68.5 41.5t38 56t18 55t3.5 46v292h20zM486 659h-376v20h376v-20z" />
    <glyph glyph-name="Ubreve" unicode="&#x16c;" horiz-adv-x="722" 
d="M50 261v453h20v-455q0 -255 291 -255t291 255v455h20v-453q0 -277 -311 -277t-311 277zM208 896h20q21 -91 132 -91t132 91h20q-20 -111 -152 -111t-152 111z" />
    <glyph glyph-name="ubreve" unicode="&#x16d;" horiz-adv-x="593" 
d="M538 512v-512h-20v115l-2 -2q-57 -129 -231 -129q-70 0 -118 17.5t-71 49.5t-32 65t-9 74v322h20v-322q0 -37 7.5 -66t28 -58t64.5 -45.5t110 -16.5q60 0 105 17.5t68.5 41.5t38 56t18 55t3.5 46v292h20zM146 726h20q21 -91 132 -91t132 91h20q-20 -111 -152 -111
t-152 111z" />
    <glyph glyph-name="Uring" unicode="&#x16e;" horiz-adv-x="722" 
d="M50 261v453h20v-455q0 -255 291 -255t291 255v455h20v-453q0 -277 -311 -277t-311 277zM282 850q0 -32 22 -54t54 -22t54 22t22 54t-22 54t-54 22t-54 -22t-22 -54zM262 850q0 40 28 68t68 28t68 -28t28 -68t-28 -68t-68 -28t-68 28t-28 68z" />
    <glyph glyph-name="uring" unicode="&#x16f;" horiz-adv-x="593" 
d="M538 512v-512h-20v115l-2 -2q-57 -129 -231 -129q-70 0 -118 17.5t-71 49.5t-32 65t-9 74v322h20v-322q0 -37 7.5 -66t28 -58t64.5 -45.5t110 -16.5q60 0 105 17.5t68.5 41.5t38 56t18 55t3.5 46v292h20zM221 700q0 -32 22 -54t54 -22t54 22t22 54t-22 54t-54 22t-54 -22
t-22 -54zM201 700q0 40 28 68t68 28t68 -28t28 -68t-28 -68t-68 -28t-68 28t-28 68z" />
    <glyph glyph-name="Uhungarumlaut" unicode="&#x170;" horiz-adv-x="722" 
d="M50 261v453h20v-455q0 -255 291 -255t291 255v455h20v-453q0 -277 -311 -277t-311 277zM429 771l164 139h32l-168 -139h-28zM229 771l164 139h32l-168 -139h-28z" />
    <glyph glyph-name="uhungarumlaut" unicode="&#x171;" horiz-adv-x="593" 
d="M538 512v-512h-20v115l-2 -2q-57 -129 -231 -129q-70 0 -118 17.5t-71 49.5t-32 65t-9 74v322h20v-322q0 -37 7.5 -66t28 -58t64.5 -45.5t110 -16.5q60 0 105 17.5t68.5 41.5t38 56t18 55t3.5 46v292h20zM369 601l164 139h32l-168 -139h-28zM169 601l164 139h32
l-168 -139h-28z" />
    <glyph glyph-name="Uogonek" unicode="&#x172;" horiz-adv-x="722" 
d="M460 -150v-20q-48 -20 -105 -20q-49 0 -77 23t-28 65q0 36 33 63q15 12 37 24q-270 17 -270 276v453h20v-455q0 -255 291 -255t291 255v455h20v-453q0 -277 -311 -277h-8q-35 -18 -56 -36q-27 -26 -27 -50q0 -33 23.5 -50.5t61.5 -17.5q41 0 105 20z" />
    <glyph glyph-name="uogonek" unicode="&#x173;" horiz-adv-x="593" 
d="M604 -150v-20q-45 -20 -94 -20q-45 0 -70 23t-25 65q0 33 29.5 61t73.5 41v115l-2 -2q-57 -129 -231 -129q-70 0 -118 17.5t-71 49.5t-32 65t-9 74v322h20v-322q0 -37 7.5 -66t28 -58t64.5 -45.5t110 -16.5q60 0 105 17.5t68.5 41.5t38 56t18 55t3.5 46v292h20v-512
q-55 -28 -80 -52t-25 -50q0 -33 21.5 -50.5t55.5 -17.5q38 0 94 20z" />
    <glyph glyph-name="Wcircumflex" unicode="&#x174;" horiz-adv-x="982" 
d="M219 0l-238 714h20l230 -688h2l243 688h30l243 -688h2l230 688h20l-238 -714h-26l-245 694h-2l-245 -694h-26zM310 771l165 139h32l165 -139h-32l-149 125l-149 -125h-32z" />
    <glyph glyph-name="wcircumflex" unicode="&#x175;" horiz-adv-x="852" 
d="M195 0l-208 512h26l197 -492l200 492h32l200 -492l197 492h26l-208 -512h-30l-201 492l-201 -492h-30zM245 601l165 139h32l165 -139h-32l-149 125l-149 -125h-32z" />
    <glyph glyph-name="Ycircumflex" unicode="&#x176;" horiz-adv-x="630" 
d="M305 0v301l-337 413h29l318 -391l318 391h29l-337 -413v-301h-20zM136 771l165 139h32l165 -139h-32l-149 125l-149 -125h-32z" />
    <glyph glyph-name="ycircumflex" unicode="&#x177;" horiz-adv-x="500" 
d="M250 1l-263 511h26l249 -487l225 487h26l-272 -580q-32 -66 -59.5 -85.5t-84.5 -19.5h-40v20h46q43 0 67.5 16.5t45.5 63.5zM83 601l165 139h32l165 -139h-32l-149 125l-149 -125h-32z" />
    <glyph glyph-name="Ydieresis" unicode="&#x178;" horiz-adv-x="630" 
d="M305 0v301l-337 413h29l318 -391l318 391h29l-337 -413v-301h-20zM223 786h-20v109h20v-109zM429 786h-20v109h20v-109z" />
    <glyph glyph-name="Zacute" unicode="&#x179;" horiz-adv-x="574" 
d="M-19 0v29l575 665h-541v20h567v-24l-581 -670h592v-20h-612zM280 771l164 139h32l-168 -139h-28z" />
    <glyph glyph-name="zacute" unicode="&#x17a;" horiz-adv-x="481" 
d="M3 27l432 465h-405v20h431v-24l-438 -468h455v-20h-475v27zM222 601l164 139h32l-168 -139h-28z" />
    <glyph glyph-name="Zdotaccent" unicode="&#x17b;" horiz-adv-x="574" 
d="M-19 0v29l575 665h-541v20h567v-24l-581 -670h592v-20h-612zM298 786h-20v109h20v-109z" />
    <glyph glyph-name="zdotaccent" unicode="&#x17c;" horiz-adv-x="481" 
d="M3 27l432 465h-405v20h431v-24l-438 -468h455v-20h-475v27zM257 616h-20v109h20v-109z" />
    <glyph glyph-name="Zcaron" unicode="&#x17d;" horiz-adv-x="574" 
d="M-19 0v29l575 665h-541v20h567v-24l-581 -670h592v-20h-612zM278 771l-163 139h30l150 -125l150 125h30l-163 -139h-34z" />
    <glyph glyph-name="zcaron" unicode="&#x17e;" horiz-adv-x="481" 
d="M3 27l432 465h-405v20h431v-24l-438 -468h455v-20h-475v27zM230 601l-163 139h30l150 -125l150 125h30l-163 -139h-34z" />
    <glyph glyph-name="florin" unicode="&#x192;" horiz-adv-x="648" 
d="M207 -45l98 459h-140l4 20h140l25 115q21 94 56.5 132.5t111.5 38.5q25 0 65 -6l-5 -20q-42 6 -58 6q-69 0 -101 -34t-52 -129l-22 -103h147l-4 -20h-147l-97 -457q-18 -84 -52 -121.5t-111 -37.5q-32 0 -65 5l3 20q25 -5 59 -5q67 0 97.5 29t47.5 108z" />
    <glyph glyph-name="Scommaaccent" unicode="&#x218;" horiz-adv-x="667" 
d="M616 514h-20q-6 96 -68.5 146t-200.5 50q-249 0 -249 -165q0 -55 33.5 -90t119.5 -54l240 -52q163 -35 163 -164q0 -27 -5.5 -52t-24 -53t-48.5 -48.5t-83 -34t-123 -13.5q-81 0 -141 17t-92.5 41.5t-52 61t-25 66t-6.5 65.5h20q1 -66 23.5 -112t64 -71.5t93.5 -36.5
t120 -11q76 0 129.5 16t80.5 44t38.5 57t11.5 62q0 60 -36.5 95.5t-117.5 52.5l-226 48q-92 19 -134 57.5t-42 110.5q0 183 264 183q85 0 144.5 -17.5t89.5 -50.5t43.5 -67.5t16.5 -80.5zM332 -130v80h20v-80q0 -80 -48 -90v18q28 14 28 72z" />
    <glyph glyph-name="scommaaccent" unicode="&#x219;" horiz-adv-x="500" 
d="M11 160h20q5 -40 15 -66t34 -48t68 -32t111 -10q210 0 210 126q0 57 -32.5 81t-115.5 34l-155 19q-137 18 -137 127q0 137 223 137q108 0 159.5 -37t55.5 -129h-20q-4 84 -50.5 115t-150.5 31q-197 0 -197 -117q0 -48 29 -73.5t92 -33.5l155 -19q92 -12 128 -42t36 -94
q0 -145 -230 -145q-62 0 -106.5 10t-69.5 24.5t-41 40t-21.5 47t-9.5 54.5zM246 -130v80h20v-80q0 -80 -48 -90v18q28 14 28 72z" />
    <glyph glyph-name="uni021A" unicode="&#x21a;" horiz-adv-x="574" 
d="M277 0v694h-298v20h616v-20h-298v-694h-20zM277 -130v80h20v-80q0 -80 -48 -90v18q28 14 28 72z" />
    <glyph glyph-name="uni021B" unicode="&#x21b;" horiz-adv-x="296" 
d="M123 96v396h-122v20h122v176h20v-176h149v-20h-149v-397q0 -46 19 -63.5t72 -17.5q32 0 72 5v-20q-45 -5 -72 -5q-65 0 -88 23.5t-23 78.5zM186 -130v80h20v-80q0 -80 -48 -90v18q28 14 28 72z" />
    <glyph glyph-name="circumflex" unicode="&#x2c6;" 
d="M-116 601l165 139h32l165 -139h-32l-149 125l-149 -125h-32z" />
    <glyph glyph-name="caron" unicode="&#x2c7;" 
d="M48 601l-163 139h30l150 -125l150 125h30l-163 -139h-34z" />
    <glyph glyph-name="uni02C9" unicode="&#x2c9;" 
d="M253 659h-376v20h376v-20z" />
    <glyph glyph-name="breve" unicode="&#x2d8;" 
d="M-87 726h20q21 -91 132 -91t132 91h20q-20 -111 -152 -111t-152 111z" />
    <glyph glyph-name="dotaccent" unicode="&#x2d9;" 
d="M75 616h-20v109h20v-109z" />
    <glyph glyph-name="ring" unicode="&#x2da;" 
d="M-11 700q0 -32 22 -54t54 -22t54 22t22 54t-22 54t-54 22t-54 -22t-22 -54zM-31 700q0 40 28 68t68 28t68 -28t28 -68t-28 -68t-68 -28t-68 28t-28 68z" />
    <glyph glyph-name="ogonek" unicode="&#x2db;" 
d="M250 -150v-20q-48 -20 -105 -20q-49 0 -77 23t-28 65q0 35 32 62t80 40h25q-117 -52 -117 -102q0 -33 23.5 -50.5t61.5 -17.5q41 0 105 20z" />
    <glyph glyph-name="tilde" unicode="&#x2dc;" 
d="M-79 630h-20q13 81 90 81q19 0 43 -11l75 -39q24 -11 39 -11q21 0 38.5 14.5t22.5 46.5h20q-5 -39 -27 -60t-55 -21q-22 0 -45 12l-74 38q-19 11 -40 11q-23 0 -42 -15t-25 -46z" />
    <glyph glyph-name="hungarumlaut" unicode="&#x2dd;" 
d="M100 601l164 139h32l-168 -139h-28zM-100 601l164 139h32l-168 -139h-28z" />
    <glyph glyph-name="uni0394" unicode="&#x394;" horiz-adv-x="611" 
d="M600 0h-589l289 712h7zM573 18l-270 654l-266 -654h536z" />
    <glyph glyph-name="uni03A9" unicode="&#x3a9;" horiz-adv-x="722" 
d="M662 0h-215v152q93 20 144.5 91t51.5 168q0 119 -82 205.5t-200 86.5t-199.5 -86.5t-81.5 -205.5q0 -97 53 -171t145 -88v-152h-217v19h198v117q-96 26 -147 101t-51 177q0 126 87 216.5t213 90.5q127 0 213.5 -90.5t86.5 -217.5q0 -104 -49.5 -176.5t-146.5 -99.5v-118
h197v-19z" />
    <glyph glyph-name="uni03BC" unicode="&#x3bc;" horiz-adv-x="593" 
d="M538 512v-512h-20v115l-2 -2q-57 -129 -231 -129q-89 0 -141 28.5t-67 68.5v4h-2v-287h-20v714h20v-322q0 -37 7.5 -66t28 -58t64.5 -45.5t110 -16.5q60 0 105 17.5t68.5 41.5t38 56t18 55t3.5 46v292h20z" />
    <glyph glyph-name="pi" unicode="&#x3c0;" horiz-adv-x="556" 
d="M517 9q-20 -13 -44 -13q-16 0 -27.5 6t-17 13t-8 22t-3 23.5t-0.5 26.5v348h-298v-435h-18v435h-72v18h482v-18h-76v-351q0 -17 0.5 -24t3.5 -20.5t11.5 -19.5t22.5 -6q25 0 44 16v-21z" />
    <glyph glyph-name="endash" unicode="&#x2013;" horiz-adv-x="500" 
d="M500 256h-500v20h500v-20z" />
    <glyph glyph-name="emdash" unicode="&#x2014;" horiz-adv-x="1000" 
d="M1000 256h-1000v20h1000v-20z" />
    <glyph glyph-name="quoteleft" unicode="&#x2018;" horiz-adv-x="168" 
d="M74 498v95q0 47 9.5 75.5t38.5 45.5v-26q-28 -18 -28 -88v-102h-20z" />
    <glyph glyph-name="quoteright" unicode="&#x2019;" horiz-adv-x="168" 
d="M74 612v102h20v-95q0 -47 -9.5 -75.5t-38.5 -45.5v26q28 18 28 88z" />
    <glyph glyph-name="quotesinglbase" unicode="&#x201a;" horiz-adv-x="168" 
d="M74 -6v102h20v-95q0 -47 -9.5 -75.5t-38.5 -45.5v26q28 18 28 88z" />
    <glyph glyph-name="quotedblleft" unicode="&#x201c;" horiz-adv-x="296" 
d="M74 498v95q0 47 9.5 75.5t38.5 45.5v-26q-28 -18 -28 -88v-102h-20zM202 498v95q0 47 9.5 75.5t38.5 45.5v-26q-28 -18 -28 -88v-102h-20z" />
    <glyph glyph-name="quotedblright" unicode="&#x201d;" horiz-adv-x="296" 
d="M202 612v102h20v-95q0 -47 -9.5 -75.5t-38.5 -45.5v26q28 18 28 88zM74 612v102h20v-95q0 -47 -9.5 -75.5t-38.5 -45.5v26q28 18 28 88z" />
    <glyph glyph-name="quotedblbase" unicode="&#x201e;" horiz-adv-x="296" 
d="M202 -6v102h20v-95q0 -47 -9.5 -75.5t-38.5 -45.5v26q28 18 28 88zM74 -6v102h20v-95q0 -47 -9.5 -75.5t-38.5 -45.5v26q28 18 28 88z" />
    <glyph glyph-name="dagger" unicode="&#x2020;" horiz-adv-x="648" 
d="M314 -134v584h-260v20h260v244h20v-244h260v-20h-260v-584h-20z" />
    <glyph glyph-name="daggerdbl" unicode="&#x2021;" horiz-adv-x="648" 
d="M314 83v414h-260v20h260v197h20v-197h260v-20h-260v-414h260v-20h-260v-197h-20v197h-260v20h260z" />
    <glyph glyph-name="bullet" unicode="&#x2022;" horiz-adv-x="500" 
d="M72 356q0 74 52 126t126 52t126 -52t52 -126t-52 -126t-126 -52t-126 52t-52 126z" />
    <glyph glyph-name="ellipsis" unicode="&#x2026;" horiz-adv-x="1000" 
d="M823 0v96h20v-96h-20zM490 0v96h20v-96h-20zM157 0v96h20v-96h-20z" />
    <glyph glyph-name="perthousand" unicode="&#x2030;" horiz-adv-x="1167" 
d="M132 -22l476 748h20l-476 -748h-20zM842 173q0 -82 40 -125.5t110 -43.5t110 43.5t40 125.5t-40 125.5t-110 43.5t-110 -43.5t-40 -125.5zM822 173q0 98 50 143.5t120 45.5t120 -45.5t50 -143.5t-50 -143.5t-120 -45.5t-120 45.5t-50 143.5zM435 173q0 -82 40 -125.5
t110 -43.5t110 43.5t40 125.5t-40 125.5t-110 43.5t-110 -43.5t-40 -125.5zM415 173q0 98 50 143.5t120 45.5t120 -45.5t50 -143.5t-50 -143.5t-120 -45.5t-120 45.5t-50 143.5zM25 531q0 -82 40 -125.5t110 -43.5t110 43.5t40 125.5t-40 125.5t-110 43.5t-110 -43.5
t-40 -125.5zM5 531q0 98 50 143.5t120 45.5t120 -45.5t50 -143.5t-50 -143.5t-120 -45.5t-120 45.5t-50 143.5z" />
    <glyph glyph-name="guilsinglleft" unicode="&#x2039;" horiz-adv-x="278" 
d="M72 275l118 138v-25l-104 -122l104 -122v-25l-118 138v18z" />
    <glyph glyph-name="guilsinglright" unicode="&#x203a;" horiz-adv-x="278" 
d="M88 413l118 -138v-18l-118 -138v25l104 122l-104 122v25z" />
    <glyph glyph-name="fraction" unicode="&#x2044;" horiz-adv-x="168" 
d="M-165 -24l478 752h20l-478 -752h-20z" />
    <glyph glyph-name="Euro" unicode="&#x20ac;" horiz-adv-x="648" 
d="M639 78v-25q-91 -68 -202 -68q-139 0 -231 86.5t-104 226.5h-86l11 20h74q-1 3 -1 15v16q0 36 4 64h-88l11 20h80q24 132 112 208.5t221 76.5q102 0 189 -54l-10 -16q-83 50 -181 50q-122 0 -205 -72t-103 -193h413l-12 -20h-404q-4 -28 -4 -63v-16v-8q0 -5 1 -8h378
l-11 -20h-365q12 -131 97 -212.5t215 -81.5q60 0 103 17t98 57z" />
    <glyph glyph-name="afii61289" unicode="&#x2113;" horiz-adv-x="500" 
d="M396 35q-49 -49 -110 -49q-48 0 -79 29t-31 90v148l-60 -68h-2l-15 19l77 83v269q0 79 30.5 122t75.5 43q40 0 65 -31t25 -87q0 -141 -161 -324v-168q0 -53 24 -74.5t57 -21.5q49 0 88 39h2zM342 599q0 43 -17.5 69t-42.5 26q-30 0 -50.5 -33.5t-20.5 -100.5v-246
q131 157 131 285z" />
    <glyph glyph-name="trademark" unicode="&#x2122;" horiz-adv-x="990" 
d="M828 302v392h-2l-166 -392h-20l-166 392h-2v-392h-20v412h33l165 -386l165 386h33v-412h-20zM191 302v392h-149v20h318v-20h-149v-392h-20z" />
    <glyph glyph-name="Omega" unicode="&#x2126;" horiz-adv-x="722" 
d="M662 0h-215v152q93 20 144.5 91t51.5 168q0 119 -82 205.5t-200 86.5t-199.5 -86.5t-81.5 -205.5q0 -97 53 -171t145 -88v-152h-217v19h198v117q-96 26 -147 101t-51 177q0 126 87 216.5t213 90.5q127 0 213.5 -90.5t86.5 -217.5q0 -104 -49.5 -176.5t-146.5 -99.5v-118
h197v-19z" />
    <glyph glyph-name="estimated" unicode="&#x212e;" horiz-adv-x="600" 
d="M561 259h-404v-181q59 -59 145 -59q122 0 193 120l35 -21q-46 -72 -98 -103.5t-130 -31.5q-115 0 -186.5 79t-71.5 197q0 119 71 197.5t187 78.5q115 0 186.5 -77t72.5 -199zM157 295h291v145q-63 60 -147 60t-144 -60v-145z" />
    <glyph glyph-name="partialdiff" unicode="&#x2202;" horiz-adv-x="444" 
d="M386 374q0 -46 -4.5 -91.5t-18 -101t-35.5 -97t-61 -69.5t-90 -28q-78 0 -125.5 70t-47.5 152q0 87 47.5 149.5t132.5 62.5q53 0 101.5 -29t79.5 -75q1 11 1 35v35q0 50 -9.5 100.5t-29.5 101t-60 82.5t-94 32q-56 0 -120 -46l-11 16q69 47 131 47q49 0 88 -23.5
t61.5 -59.5t37.5 -84t20.5 -91.5t5.5 -87.5zM363 293q-79 111 -182 111q-76 0 -117 -59t-41 -138q0 -75 41.5 -139.5t112.5 -64.5q46 0 83.5 30t59 76t32.5 94t11 90z" />
    <glyph glyph-name="Delta" unicode="&#x2206;" horiz-adv-x="611" 
d="M600 0h-589l289 712h7zM573 18l-270 654l-266 -654h536z" />
    <glyph glyph-name="product" unicode="&#x220f;" horiz-adv-x="704" 
d="M611 -214h-18v982h-482v-982h-18v1000h518v-1000z" />
    <glyph glyph-name="summation" unicode="&#x2211;" horiz-adv-x="593" 
d="M531 -214h-504v18l341 486l-326 478v18h479v-18h-457l327 -478l-341 -486h481v-18z" />
    <glyph glyph-name="minus" unicode="&#x2212;" horiz-adv-x="600" 
d="M553 243h-506v20h506v-20z" />
    <glyph glyph-name="uni2215" unicode="&#x2215;" horiz-adv-x="168" 
d="M-165 -24l478 752h20l-478 -752h-20z" />
    <glyph glyph-name="uni2219" unicode="&#x2219;" horiz-adv-x="168" 
d="M44 332q0 17 11.5 28.5t28.5 11.5t28.5 -11.5t11.5 -28.5t-11.5 -28.5t-28.5 -11.5t-28.5 11.5t-11.5 28.5z" />
    <glyph glyph-name="radical" unicode="&#x221a;" horiz-adv-x="444" 
d="M444 777l-219 -996h-10l-188 386l-44 -21l-6 15l58 28l180 -373l211 962z" />
    <glyph glyph-name="infinity" unicode="&#x221e;" horiz-adv-x="722" 
d="M637 242q0 -56 -33 -90.5t-88 -34.5q-29 0 -57.5 12.5t-42.5 22.5t-46.5 40t-39.5 36q-12 -10 -40.5 -35.5t-44.5 -38t-44 -24.5t-57 -12q-57 0 -89.5 33.5t-32.5 90.5q0 52 33 87.5t85 35.5q17 0 36 -6t33 -12.5t34.5 -21.5t29.5 -22.5t30.5 -26t26.5 -22.5
q37 33 58 50.5t60.5 39t70.5 21.5q52 0 85 -35t33 -88zM619 242q0 44 -27 74.5t-71 30.5q-9 0 -19.5 -2t-19 -5t-20 -9t-19 -10t-19.5 -13t-18 -13t-18.5 -14.5t-16 -13.5t-16.5 -14t-14 -12l39 -36t39 -32t50 -29t47 -9q49 0 76 29t27 78zM317 240q-115 107 -181 107
q-43 0 -69 -30.5t-26 -74.5q0 -48 26.5 -77t73.5 -29q32 0 68 19t55 35.5t53 49.5z" />
    <glyph glyph-name="integral" unicode="&#x222b;" horiz-adv-x="537" 
d="M358 758q0 -10 -6.5 -16t-16.5 -6q-7 0 -11.5 2t-10.5 9.5t-8 9.5q-1 0 -3 1l-2 1q-28 0 -42 -94q-4 -44 -4 -132v-487q0 -2 0.5 -32t0 -46.5t-2.5 -48t-8 -51t-15 -40.5t-24.5 -31.5t-36.5 -10.5q-13 0 -22.5 7.5t-9.5 19.5q0 10 6 16.5t16 6.5q11 0 21.5 -11.5
t13.5 -11.5q42 0 42 180v25v507l-1 31q0 32 0.5 47t2.5 47.5t8 51.5t15.5 41t25 32.5t36.5 10.5q14 0 25 -7t11 -21z" />
    <glyph glyph-name="approxequal" unicode="&#x2248;" horiz-adv-x="593" 
d="M506 376q-20 -66 -69 -90q-32 -15 -45 -11q-85 20 -140 37q-5 1 -38.5 13t-61 19.5t-42.5 7.5q-33 0 -57.5 -24t-36.5 -59h-18q13 42 42.5 71.5t70.5 29.5q5 0 45 -8l-45 8q63 -13 152 -43q101 -35 128 -35q34 0 60 24.5t37 59.5h18zM506 210q-20 -66 -69 -90
q-32 -15 -45 -11q-90 21 -140 37q-112 40 -142 40q-32 0 -57.5 -25t-36.5 -58h-18q20 66 70 90q32 14 43 11t45 -10.5t52 -12.5q9 -3 50 -18t77 -25.5t56 -10.5q34 0 60.5 24t36.5 59h18z" />
    <glyph glyph-name="notequal" unicode="&#x2260;" horiz-adv-x="593" 
d="M506 140h-285l-75 -140l-16 8l71 132h-177v18h186l89 166h-275v18h284l75 140l16 -8l-70 -132h177v-18h-187l-89 -166h276v-18z" />
    <glyph glyph-name="lessequal" unicode="&#x2264;" horiz-adv-x="593" 
d="M506 55l-482 205v18l482 207v-19l-461 -197l461 -195v-19zM506 -3h-482v18h482v-18z" />
    <glyph glyph-name="greaterequal" unicode="&#x2265;" horiz-adv-x="593" 
d="M506 260l-482 -205v19l461 195l-461 197v19l482 -207v-18zM506 -3h-482v18h482v-18z" />
    <glyph glyph-name="lozenge" unicode="&#x25ca;" horiz-adv-x="593" 
d="M471 356l-171 -391h-8l-170 391l170 391h8zM451 356l-155 357l-154 -357l154 -357z" />
    <glyph glyph-name="commaaccent" unicode="&#xf004;" horiz-adv-x="168" 
d="M74 -130v80h20v-80q0 -80 -48 -90v18q28 14 28 72z" />
    <glyph glyph-name="commaaccent" unicode="&#xf6c3;" horiz-adv-x="168" 
d="M74 -130v80h20v-80q0 -80 -48 -90v18q28 14 28 72z" />
    <glyph glyph-name="dotlessj" unicode="&#xf6be;" 
d="M55 -74v586h20v-603q0 -58 -28.5 -84.5t-93.5 -26.5q-11 0 -31.5 1.5t-29.5 1.5v20q20 -3 67 -3q56 0 76 24.5t20 83.5z" />
    <glyph glyph-name="dotlessj" unicode="&#xfb0f;" 
d="M55 -74v586h20v-603q0 -58 -28.5 -84.5t-93.5 -26.5q-11 0 -31.5 1.5t-29.5 1.5v20q20 -3 67 -3q56 0 76 24.5t20 83.5z" />
    <glyph glyph-name="uniF8FF" unicode="&#xf8ff;" horiz-adv-x="512" 
d="M222 117h56v67h-56v-67zM225 234h46q0 52 6 72q6 19 43 52q37 34 50 60t13 60q0 59 -35 95t-89 36q-56 0 -92 -34t-43 -103l50 -8q11 95 82 95q31 0 53.5 -24.5t22.5 -60.5q0 -20 -9.5 -37t-40.5 -46q-31 -31 -46 -59q-13 -25 -13 -81zM462 50h-412v617h412v-617z
M512 718h-512v-718h512v718z" />
    <glyph glyph-name="commaaccent.alt" horiz-adv-x="168" 
d="M93 687v-79h-20v79q0 46 12 66t36 25v-18q-28 -14 -28 -73z" />
    <glyph glyph-name="caron.alt" 
d="M60 575l44 139h29l-55 -139h-18z" />
    <glyph glyph-name="grave.cap" 
d="M102 600l-168 139h32l164 -139h-28z" />
    <glyph glyph-name="acute.cap" 
d="M0 601l164 139h32l-168 -139h-28z" />
    <glyph glyph-name="circumflex.cap" 
d="M-116 601l165 139h32l165 -139h-32l-149 125l-149 -125h-32z" />
    <glyph glyph-name="caron.cap" 
d="M48 601l-163 139h30l150 -125l150 125h30l-163 -139h-34z" />
    <glyph glyph-name="tilde.cap" 
d="M-79 630h-20q13 81 90 81q19 0 43 -11l75 -39q24 -11 39 -11q21 0 38.5 14.5t22.5 46.5h20q-5 -39 -27 -60t-55 -21q-22 0 -45 12l-74 38q-19 11 -40 11q-23 0 -42 -15t-25 -46z" />
    <glyph glyph-name="dieresis.cap" 
d="M-28 616h-20v109h20v-109zM178 616h-20v109h20v-109z" />
    <glyph glyph-name="macron.cap" 
d="M253 659h-376v20h376v-20z" />
    <glyph glyph-name="breve.cap" 
d="M-87 726h20q21 -91 132 -91t132 91h20q-20 -111 -152 -111t-152 111z" />
    <glyph glyph-name="ring.cap" 
d="M-11 700q0 -32 22 -54t54 -22t54 22t22 54t-22 54t-54 22t-54 -22t-22 -54zM-31 700q0 40 28 68t68 28t68 -28t28 -68t-28 -68t-68 -28t-68 28t-28 68z" />
    <glyph glyph-name="hungarumlaut.cap" 
d="M100 601l164 139h32l-168 -139h-28zM-100 601l164 139h32l-168 -139h-28z" />
    <glyph glyph-name="dotaccent.cap" 
d="M75 616h-20v109h20v-109z" />
    </font>
</defs>
</svg>
